<svg width="40" height="40" viewBox="0 0 40 40" fill="none" xmlns="http://www.w3.org/2000/svg">
<path d="M20.0002 0C8.95583 0 0 9.18079 0 20.5063C0 29.5666 5.73066 37.2532 13.6773 39.9648C14.6769 40.1546 15.0438 39.5199 15.0438 38.9783C15.0438 38.4893 15.0253 36.8739 15.0167 35.1604C9.45262 36.4009 8.27853 32.7409 8.27853 32.7409C7.36874 30.3707 6.05788 29.7404 6.05788 29.7404C4.24326 28.4677 6.19466 28.4939 6.19466 28.4939C8.20302 28.6385 9.26053 30.607 9.26053 30.607C11.0443 33.742 13.9393 32.8357 15.0806 32.3117C15.2601 30.9864 15.7784 30.0817 16.3504 29.5696C11.9081 29.0511 7.23825 27.2928 7.23825 19.4353C7.23825 17.1965 8.01954 15.3672 9.29894 13.9311C9.09129 13.4146 8.40671 11.3289 9.49269 8.50435C9.49269 8.50435 11.1722 7.95322 14.9942 10.6063C16.5895 10.152 18.3005 9.92412 20.0002 9.91631C21.6999 9.92412 23.4121 10.152 25.0105 10.6063C28.8278 7.95322 30.505 8.50435 30.505 8.50435C31.5936 11.3289 30.9087 13.4146 30.7011 13.9311C31.9834 15.3672 32.7594 17.1965 32.7594 19.4353C32.7594 27.3115 28.0806 29.0457 23.6271 29.5533C24.3444 30.1897 24.9836 31.4376 24.9836 33.3508C24.9836 36.0946 24.9605 38.3029 24.9605 38.9783C24.9605 39.524 25.3205 40.1634 26.3343 39.962C34.2766 37.2475 40 29.5635 40 20.5063C40 9.18079 31.0455 0 20.0002 0ZM7.49071 29.2117C7.44666 29.3136 7.29034 29.3442 7.14793 29.2742C7.00286 29.2073 6.92139 29.0684 6.96842 28.9662C7.01147 28.8613 7.16813 28.8321 7.31286 28.9024C7.45826 28.9693 7.54105 29.1095 7.49071 29.2117ZM8.4745 30.1118C8.37911 30.2024 8.19265 30.1603 8.06614 30.017C7.93531 29.8741 7.91081 29.6829 8.00751 29.5908C8.10588 29.5002 8.28671 29.5426 8.41786 29.6856C8.54869 29.8302 8.57419 30.0201 8.4745 30.1118ZM9.14941 31.2633C9.02687 31.3506 8.8265 31.2688 8.70263 31.0864C8.58009 30.904 8.58009 30.6854 8.70528 30.5978C8.82948 30.5101 9.02687 30.5889 9.15239 30.7699C9.2746 30.9553 9.2746 31.174 9.14941 31.2633ZM10.2908 32.597C10.1812 32.7209 9.94772 32.6877 9.77682 32.5186C9.60195 32.3532 9.55327 32.1185 9.66322 31.9946C9.77417 31.8703 10.009 31.9053 10.1812 32.073C10.3548 32.2381 10.4077 32.4744 10.2908 32.597ZM11.766 33.0472C11.7177 33.2078 11.4928 33.2809 11.2662 33.2126C11.04 33.1423 10.892 32.9542 10.9377 32.7919C10.9847 32.6302 11.2106 32.5542 11.4388 32.6272C11.6647 32.6971 11.813 32.8839 11.766 33.0472ZM13.4448 33.2382C13.4505 33.4073 13.2584 33.5476 13.0206 33.5506C12.7815 33.556 12.588 33.4192 12.5854 33.2528C12.5854 33.082 12.7732 32.9431 13.0123 32.939C13.2501 32.9343 13.4448 33.0701 13.4448 33.2382ZM15.0941 33.1734C15.1226 33.3384 14.9573 33.5079 14.7212 33.553C14.489 33.5965 14.274 33.4946 14.2446 33.3309C14.2158 33.1618 14.384 32.9924 14.6158 32.9486C14.8523 32.9065 15.0639 33.0056 15.0941 33.1734Z" fill="url(#paint0_linear)"/>
<defs>
<linearGradient id="paint0_linear" x1="1.36467e-07" y1="20.5714" x2="40" y2="20.5714" gradientUnits="userSpaceOnUse">
<stop stop-color="#D54274"/>
<stop offset="1" stop-color="#33DADA"/>
</linearGradient>
</defs>
</svg>
