<svg width="720" height="351" viewBox="0 0 720 351" fill="none" xmlns="http://www.w3.org/2000/svg">
<g id="BlogHeaderMobile" clip-path="url(#clip0)">
<rect id="background" x="-1277" width="1997" height="351" fill="#1F1F25"/>
<g id="Stars">
<path id="Star" d="M-1.76847 17L-0.80287 19.7639H2.32189L-0.206095 21.4721L0.759509 24.2361L-1.76847 22.5279L-4.29646 24.2361L-3.33085 21.4721L-5.85884 19.7639H-2.73408L-1.76847 17Z" fill="#3B8D99"/>
<path id="Star_2" d="M16.5098 29L17.4755 31.7639H20.6002L18.0722 33.4721L19.0378 36.2361L16.5098 34.5279L13.9819 36.2361L14.9475 33.4721L12.4195 31.7639H15.5442L16.5098 29Z" fill="#3B8D99"/>
<path id="Star_3" d="M60.5938 15L61.5594 17.7639H64.6842L62.1562 19.4721L63.1218 22.2361L60.5938 20.5279L58.0658 22.2361L59.0315 19.4721L56.5035 17.7639H59.6282L60.5938 15Z" fill="#239494"/>
<path id="Star_4" d="M98.2266 22L99.1922 24.7639H102.317L99.789 26.4721L100.755 29.2361L98.2266 27.5279L95.6987 29.2361L96.6643 26.4721L94.1363 24.7639H97.261L98.2266 22Z" fill="#265B63"/>
<path id="Star_5" d="M72.421 46L73.3866 48.7639H76.5113L73.9834 50.4721L74.949 53.2361L72.421 51.5279L69.893 53.2361L70.8586 50.4721L68.3306 48.7639H71.4554L72.421 46Z" fill="#3B8D99"/>
<path id="Star_6" d="M-1.76847 17L-0.80287 19.7639H2.32189L-0.206095 21.4721L0.759509 24.2361L-1.76847 22.5279L-4.29646 24.2361L-3.33085 21.4721L-5.85884 19.7639H-2.73408L-1.76847 17Z" fill="#3B8D99"/>
<path id="Star_7" d="M16.5098 29L17.4755 31.7639H20.6002L18.0722 33.4721L19.0378 36.2361L16.5098 34.5279L13.9819 36.2361L14.9475 33.4721L12.4195 31.7639H15.5442L16.5098 29Z" fill="#3B8D99"/>
<path id="Star_8" d="M60.5938 15L61.5594 17.7639H64.6842L62.1562 19.4721L63.1218 22.2361L60.5938 20.5279L58.0658 22.2361L59.0315 19.4721L56.5035 17.7639H59.6282L60.5938 15Z" fill="#239494"/>
<path id="Star_9" d="M72.421 46L73.3866 48.7639H76.5113L73.9834 50.4721L74.949 53.2361L72.421 51.5279L69.893 53.2361L70.8586 50.4721L68.3306 48.7639H71.4554L72.421 46Z" fill="#3B8D99"/>
<path id="Star_10" d="M259.509 83L260.474 85.7639H263.599L261.071 87.4721L262.037 90.2361L259.509 88.5279L256.981 90.2361L257.946 87.4721L255.419 85.7639H258.543L259.509 83Z" fill="#3B8D99"/>
<path id="Star_11" d="M277.787 95L278.753 97.7639H281.878L279.35 99.4721L280.315 102.236L277.787 100.528L275.259 102.236L276.225 99.4721L273.697 97.7639H276.822L277.787 95Z" fill="#582838"/>
<path id="Star_12" d="M321.871 81L322.837 83.7639H325.962L323.434 85.4721L324.399 88.2361L321.871 86.5279L319.343 88.2361L320.309 85.4721L317.781 83.7639H320.906L321.871 81Z" fill="#670852"/>
<path id="Star_13" d="M207.899 104L208.864 106.764H211.989L209.461 108.472L210.427 111.236L207.899 109.528L205.371 111.236L206.336 108.472L203.808 106.764H206.933L207.899 104Z" fill="#265B63"/>
<path id="Star_14" d="M333.698 112L334.664 114.764H337.789L335.261 116.472L336.226 119.236L333.698 117.528L331.17 119.236L332.136 116.472L329.608 114.764H332.733L333.698 112Z" fill="#3B8D99"/>
<path id="Star_15" d="M156.288 28L157.254 30.7639H160.379L157.851 32.4721L158.816 35.2361L156.288 33.5279L153.76 35.2361L154.726 32.4721L152.198 30.7639H155.323L156.288 28Z" fill="#AA4B6B"/>
<path id="Star_16" d="M16.5098 71L17.4755 73.7639H20.6002L18.0722 75.4721L19.0378 78.2361L16.5098 76.5279L13.9819 78.2361L14.9475 75.4721L12.4195 73.7639H15.5442L16.5098 71Z" fill="#582838"/>
<path id="Star_17" d="M2.06231 107.944L-0.132576 105.876L-2.92608 107.178L-1.48909 104.597L-3.68397 102.529L-0.600982 103.002L0.836005 100.422L1.30441 103.295L4.3874 103.769L1.5939 105.071L2.06231 107.944Z" fill="#582838"/>
</g>
<g id="Stars_2">
<path id="Star_18" d="M-1.76847 17L-0.80287 19.7639H2.32189L-0.206095 21.4721L0.759509 24.2361L-1.76847 22.5279L-4.29646 24.2361L-3.33085 21.4721L-5.85884 19.7639H-2.73408L-1.76847 17Z" fill="#3B8D99"/>
<path id="Star_19" d="M16.5098 29L17.4755 31.7639H20.6002L18.0722 33.4721L19.0378 36.2361L16.5098 34.5279L13.9819 36.2361L14.9475 33.4721L12.4195 31.7639H15.5442L16.5098 29Z" fill="#3B8D99"/>
<path id="Star_20" d="M60.5938 15L61.5594 17.7639H64.6842L62.1562 19.4721L63.1218 22.2361L60.5938 20.5279L58.0658 22.2361L59.0315 19.4721L56.5035 17.7639H59.6282L60.5938 15Z" fill="#239494"/>
<path id="Star_21" d="M98.2266 22L99.1922 24.7639H102.317L99.789 26.4721L100.755 29.2361L98.2266 27.5279L95.6987 29.2361L96.6643 26.4721L94.1363 24.7639H97.261L98.2266 22Z" fill="#265B63"/>
<path id="Star_22" d="M72.421 46L73.3866 48.7639H76.5113L73.9834 50.4721L74.949 53.2361L72.421 51.5279L69.893 53.2361L70.8586 50.4721L68.3306 48.7639H71.4554L72.421 46Z" fill="#3B8D99"/>
<path id="Star_23" d="M-1.76847 17L-0.80287 19.7639H2.32189L-0.206095 21.4721L0.759509 24.2361L-1.76847 22.5279L-4.29646 24.2361L-3.33085 21.4721L-5.85884 19.7639H-2.73408L-1.76847 17Z" fill="#3B8D99"/>
<path id="Star_24" d="M16.5098 29L17.4755 31.7639H20.6002L18.0722 33.4721L19.0378 36.2361L16.5098 34.5279L13.9819 36.2361L14.9475 33.4721L12.4195 31.7639H15.5442L16.5098 29Z" fill="#3B8D99"/>
<path id="Star_25" d="M60.5938 15L61.5594 17.7639H64.6842L62.1562 19.4721L63.1218 22.2361L60.5938 20.5279L58.0658 22.2361L59.0315 19.4721L56.5035 17.7639H59.6282L60.5938 15Z" fill="#239494"/>
<path id="Star_26" d="M72.421 46L73.3866 48.7639H76.5113L73.9834 50.4721L74.949 53.2361L72.421 51.5279L69.893 53.2361L70.8586 50.4721L68.3306 48.7639H71.4554L72.421 46Z" fill="#3B8D99"/>
<path id="Star_27" d="M259.509 83L260.474 85.7639H263.599L261.071 87.4721L262.037 90.2361L259.509 88.5279L256.981 90.2361L257.946 87.4721L255.419 85.7639H258.543L259.509 83Z" fill="#3B8D99"/>
<path id="Star_28" d="M277.787 95L278.753 97.7639H281.878L279.35 99.4721L280.315 102.236L277.787 100.528L275.259 102.236L276.225 99.4721L273.697 97.7639H276.822L277.787 95Z" fill="#582838"/>
<path id="Star_29" d="M321.871 81L322.837 83.7639H325.962L323.434 85.4721L324.399 88.2361L321.871 86.5279L319.343 88.2361L320.309 85.4721L317.781 83.7639H320.906L321.871 81Z" fill="#670852"/>
<path id="Star_30" d="M207.899 104L208.864 106.764H211.989L209.461 108.472L210.427 111.236L207.899 109.528L205.371 111.236L206.336 108.472L203.808 106.764H206.933L207.899 104Z" fill="#265B63"/>
<path id="Star_31" d="M333.698 112L334.664 114.764H337.789L335.261 116.472L336.226 119.236L333.698 117.528L331.17 119.236L332.136 116.472L329.608 114.764H332.733L333.698 112Z" fill="#3B8D99"/>
<path id="Star_32" d="M156.288 28L157.254 30.7639H160.379L157.851 32.4721L158.816 35.2361L156.288 33.5279L153.76 35.2361L154.726 32.4721L152.198 30.7639H155.323L156.288 28Z" fill="#AA4B6B"/>
<path id="Star_33" d="M16.5098 71L17.4755 73.7639H20.6002L18.0722 75.4721L19.0378 78.2361L16.5098 76.5279L13.9819 78.2361L14.9475 75.4721L12.4195 73.7639H15.5442L16.5098 71Z" fill="#582838"/>
<path id="Star_34" d="M2.06231 107.944L-0.132576 105.876L-2.92607 107.178L-1.48909 104.597L-3.68397 102.529L-0.600981 103.002L0.836005 100.422L1.30441 103.295L4.3874 103.769L1.5939 105.071L2.06231 107.944Z" fill="#582838"/>
<path id="Star_35" d="M635.202 42L636.168 44.7639H639.293L636.765 46.4721L637.73 49.2361L635.202 47.5279L632.674 49.2361L633.64 46.4721L631.112 44.7639H634.237L635.202 42Z" fill="#670852"/>
<path id="Star_36" d="M705.092 75L706.057 77.7639H709.182L706.654 79.4721L707.62 82.2361L705.092 80.5279L702.564 82.2361L703.529 79.4721L701.002 77.7639H704.126L705.092 75Z" fill="#582838"/>
<path id="Star_37" d="M355.969 19.8938L358.786 21.1522L360.943 19.0497L360.527 21.9299L363.343 23.1883L360.269 23.71L359.853 26.5902L358.369 24.0324L355.295 24.5541L357.453 22.4516L355.969 19.8938Z" fill="#239494"/>
<path id="Star_38" d="M388.248 33.3366L391.065 34.595L393.222 32.4925L392.806 35.3728L395.622 36.6312L392.548 37.1529L392.132 40.0331L390.649 37.4753L387.575 37.997L389.732 35.8945L388.248 33.3366Z" fill="#AA4B6B"/>
<path id="Star_39" d="M515.682 67.4274L513.488 65.3589L510.694 66.6611L512.131 64.0804L509.936 62.0119L513.019 62.4855L514.456 59.9049L514.925 62.7782L518.008 63.2518L515.214 64.554L515.682 67.4274Z" fill="#3B8D99"/>
<path id="Star_40" d="M493.559 64.317L491.364 62.2485L488.571 63.5507L490.008 60.9701L487.813 58.9016L490.896 59.3752L492.333 56.7945L492.801 59.6679L495.884 60.1415L493.091 61.4437L493.559 64.317Z" fill="#3B8D99"/>
<path id="Star_41" d="M551.703 27.1451L549.508 25.0766L546.715 26.3789L548.152 23.7982L545.957 21.7297L549.04 22.2033L550.477 19.6227L550.945 22.496L554.028 22.9696L551.235 24.2718L551.703 27.1451Z" fill="#265B63"/>
<path id="Star_42" d="M513.233 24.9442L511.038 22.8757L508.245 24.1779L509.682 21.5973L507.487 19.5288L510.57 20.0024L512.007 17.4217L512.475 20.2951L515.558 20.7687L512.765 22.0709L513.233 24.9442Z" fill="#265B63"/>
<path id="Star_43" d="M435.386 72.42L433.191 70.3515L430.397 71.6538L431.834 69.0731L429.639 67.0046L432.722 67.4782L434.159 64.8976L434.628 67.7709L437.711 68.2445L434.917 69.5467L435.386 72.42Z" fill="#3B8D99"/>
<path id="Star_44" d="M473.324 26.7697L471.129 24.7011L468.336 26.0034L469.773 23.4227L467.578 21.3542L470.661 21.8278L472.098 19.2472L472.566 22.1205L475.649 22.5941L472.856 23.8963L473.324 26.7697Z" fill="#265B63"/>
</g>
<g id="Frame">
<g id="LightBeam" filter="url(#filter0_d)">
<path d="M169 233.898L341.013 130.373L474.109 61.2704L364.927 262.601L270.385 256.119L169 233.898Z" fill="#FCFCFC"/>
</g>
<g id="cow" filter="url(#filter1_d)">
<g id="Group">
<path id="Vector" d="M361.077 153.955C361.933 154.018 362.573 154.741 362.508 155.571L362.205 159.426C362.14 160.255 361.393 160.875 360.538 160.812C359.683 160.749 359.043 160.026 359.108 159.196L359.411 155.341C359.476 154.512 360.222 153.892 361.077 153.955Z" fill="#FF968A"/>
<path id="Vector_2" d="M370.93 154.683C371.785 154.747 372.425 155.47 372.36 156.299L372.057 160.154C371.992 160.983 371.246 161.604 370.391 161.54C369.536 161.477 368.895 160.754 368.96 159.925L369.263 156.07C369.328 155.24 370.075 154.62 370.93 154.683Z" fill="#FF968A"/>
<path id="Vector_3" d="M366.067 153.001C366.923 153.064 367.563 153.787 367.498 154.616L367.195 158.471C367.13 159.301 366.384 159.921 365.529 159.858C364.674 159.794 364.033 159.071 364.098 158.242L364.401 154.387C364.466 153.558 365.212 152.937 366.067 153.001Z" fill="#FF968A"/>
</g>
<g id="Group_2">
<path id="Vector_4" d="M398.429 178.189C399.231 178.483 399.636 179.352 399.334 180.13L396.466 187.504C394.958 191.381 390.483 193.343 386.49 191.879C385.687 191.585 385.282 190.716 385.584 189.938C385.887 189.16 386.783 188.768 387.585 189.062C389.976 189.939 392.656 188.762 393.56 186.438L396.428 179.065C396.731 178.287 397.626 177.895 398.429 178.189Z" fill="#91AAC4"/>
<path id="Vector_5" d="M342.071 141.922L342.776 139.705C342.86 139.441 343.144 139.268 343.456 139.291L349.679 139.752C350.108 139.784 350.416 140.136 350.346 140.51L349.718 144.044L345.772 166.287L337.296 168.89L344.945 144.612C344.967 144.542 344.974 144.471 344.965 144.401C344.947 144.228 344.842 144.069 344.674 143.967L342.342 142.571C342.103 142.427 341.994 142.166 342.071 141.922Z" fill="#91AAC4"/>
</g>
<path id="Vector_6" d="M342.03 142.448L342.77 139.794C342.858 139.479 343.145 139.268 343.456 139.291L349.68 139.752C350.108 139.784 350.412 140.198 350.336 140.646L349.654 144.87L344.89 145.362C344.875 145.157 344.772 144.968 344.605 144.849L342.292 143.217C342.055 143.05 341.949 142.74 342.03 142.448Z" fill="#3F5666"/>
<path id="Vector_7" d="M378.152 157.984L378.889 148.603C378.902 148.444 378.859 148.287 378.768 148.16C378.723 148.094 378.666 148.037 378.598 147.989L375.838 146.036C375.675 145.919 375.569 145.741 375.548 145.546L375.218 142.466C375.171 142.033 375.539 141.667 375.983 141.7L383.006 142.22C383.4 142.249 383.695 142.583 383.665 142.966L382.167 162.033L375.983 168.253L365.05 169.912L373.537 160.972L378.152 157.984Z" fill="#91AAC4"/>
<path id="Vector_8" d="M375.983 141.7L383.005 142.22C383.4 142.249 383.695 142.583 383.665 142.966L383.289 147.742L378.767 148.16C378.722 148.094 378.666 148.037 378.598 147.989L375.838 146.036C375.675 145.919 375.569 145.741 375.548 145.546L375.217 142.466C375.171 142.034 375.539 141.667 375.983 141.7Z" fill="#3F5666"/>
<path id="Vector_9" d="M365.695 157.746C359.938 157.319 354.953 161.028 354.56 166.028C354.167 171.029 358.516 175.428 364.272 175.855C370.029 176.281 375.015 172.573 375.408 167.572C375.801 162.572 371.452 158.172 365.695 157.746Z" fill="#E8C1B5"/>
<path id="Vector_10" d="M371.429 167.277C371.083 171.687 367.165 175.09 362.296 175.541C362.931 175.696 363.591 175.804 364.271 175.854C370.028 176.281 375.013 172.572 375.406 167.572C375.799 162.571 371.451 158.172 365.694 157.745C365.014 157.695 364.345 157.704 363.693 157.764C368.434 158.927 371.776 162.867 371.429 167.277Z" fill="#CCA295"/>
<path id="Vector_11" d="M297.326 193.428L297.654 189.249C297.851 186.739 302.795 184.986 302.795 184.986L305.016 184.671L314.631 183.308C314.631 183.308 314.648 183.303 314.678 183.295L314.68 183.295C315.147 183.167 321.364 170.439 325.059 168.8C331.879 165.774 331.259 145.347 331.259 145.347C331.255 145.263 331.234 145.178 331.2 145.103C331.157 145.009 331.096 144.926 331.017 144.858L327.465 141.838C327.249 141.655 327.168 141.369 327.256 141.105L328.067 138.686C328.172 138.379 328.479 138.181 328.817 138.206L335.583 138.707C335.953 138.734 336.259 139.002 336.318 139.355L336.963 144.131L335.776 162.973C335.834 163.315 336.125 163.581 336.486 163.615L337.215 163.696L360.329 166.192L372.559 167.515C372.771 167.537 372.984 167.48 373.148 167.351L378.537 163.399L384.537 159.03C385.537 158.832 385.537 158.832 385.537 158.832L388.552 158.832C388.995 158.865 389.383 158.549 389.416 158.125L390.155 148.729C390.164 148.604 390.14 148.48 390.09 148.368C390.043 148.264 389.973 148.166 389.882 148.091L388.126 146.62C387.987 146.503 387.892 146.343 387.861 146.171L387.38 143.501C387.292 143.007 387.711 142.567 388.234 142.606L394.837 143.095C395.28 143.128 395.612 143.496 395.579 143.919L394.035 163.57C394.011 163.868 393.812 164.125 393.52 164.23L391.036 166.522C390.744 166.629 390.542 166.886 390.519 167.182L389.605 179.752L388.888 189.61C388.669 192.612 387.388 195.307 385.411 197.371C382.813 200.087 379.018 201.72 374.872 201.542L361.537 200.605L339.778 199.072L334.994 198.736L313.358 200.066C311.968 199.963 310.68 199.334 309.776 198.321L308.729 197.149C307.824 196.138 306.534 195.51 305.146 195.408L298.674 194.928C297.869 194.869 297.265 194.196 297.326 193.428Z" fill="#E1E9F2"/>
<path id="Vector_12" d="M390.041 162.879C390.016 163.187 389.818 163.455 389.532 163.565L387.079 165.949C386.791 166.061 386.593 166.327 386.569 166.635L385.617 179.656L384.871 189.869C384.644 192.981 383.373 195.775 381.42 197.921C379.919 199.573 378.014 200.838 375.878 201.574C379.666 201.532 383.109 199.933 385.513 197.378C387.459 195.311 388.722 192.616 388.941 189.613L389.659 179.755L390.575 167.187C390.598 166.89 390.796 166.633 391.084 166.527L393.529 164.231C393.815 164.126 394.013 163.867 394.036 163.57L395.58 143.92C395.613 143.497 395.287 143.129 394.852 143.096L391.614 142.856L390.041 162.879Z" fill="#B3D2F2"/>
<g id="Group_3">
<path id="Vector_13" d="M388.359 142.617L394.852 143.097C395.289 143.13 395.614 143.499 395.58 143.923L395.258 148.02L390.176 148.374C390.132 148.27 390.062 148.174 389.972 148.098L388.247 146.629C388.111 146.513 388.018 146.353 387.988 146.182L387.519 143.511C387.434 143.019 387.845 142.578 388.359 142.617Z" fill="#3F5666"/>
<path id="Vector_14" d="M328.404 141.192L329.206 138.771C329.307 138.465 329.61 138.266 329.942 138.29L336.595 138.783C336.959 138.81 337.26 139.076 337.316 139.429L337.946 144.204L332.278 145.183C332.237 145.089 332.175 145.006 332.096 144.937L328.608 141.923C328.397 141.74 328.317 141.454 328.404 141.192Z" fill="#3F5666"/>
</g>
<path id="Vector_15" d="M340.531 196.596C340.994 190.702 346.29 186.288 352.359 186.738C358.431 187.187 362.976 192.33 362.513 198.224C362.447 199.063 362.284 199.871 362.033 200.641L340.641 199.136C340.503 198.314 340.462 197.464 340.531 196.596Z" fill="#2F3F4A"/>
<path id="Vector_16" d="M296.77 193.402L297.095 189.269C297.29 186.787 303.415 185.144 303.415 185.144L306.177 184.874C308.564 188.647 306.584 192.616 304.41 195.353L298.48 194.914C297.477 194.84 296.71 194.162 296.77 193.402Z" fill="#E5BEB3"/>
<g id="Group_4">
<path id="Vector_17" d="M378.319 187.883C378.711 182.906 383.183 179.178 388.306 179.558C388.768 179.592 389.22 179.659 389.658 179.755L388.94 189.614C388.721 192.617 387.458 195.311 385.511 197.378C381.096 196.396 377.964 192.401 378.319 187.883Z" fill="#2F3F4A"/>
<path id="Vector_18" d="M338.166 163.766L360.89 166.234C359.426 170.722 354.509 173.808 348.945 173.396C343.067 172.961 338.514 168.776 338.166 163.766Z" fill="#2F3F4A"/>
<path id="Vector_19" d="M312.717 192.983C311.861 192.92 311.115 193.541 311.05 194.37C310.985 195.199 311.626 195.922 312.481 195.985C313.336 196.049 314.082 195.428 314.147 194.599C314.212 193.77 313.572 193.047 312.717 192.983Z" fill="#2F3F4A"/>
<path id="Vector_20" d="M298.577 192.073C298.237 192.048 297.936 192.355 297.904 192.759C297.872 193.163 298.122 193.511 298.462 193.536C298.802 193.561 299.103 193.254 299.135 192.85C299.166 192.446 298.917 192.098 298.577 192.073Z" fill="#582838" fill-opacity="0.39"/>
</g>
<path id="Vector_21" d="M314.432 199.08C315.082 200.3 316.779 203.068 319.52 204.669C319.993 204.946 320.603 204.658 320.662 204.125C320.882 202.151 321.18 197.877 320.015 195.448C319.809 195.018 319.24 194.895 318.86 195.193C318.008 195.862 316.436 197.05 314.696 198.131C314.368 198.334 314.254 198.745 314.432 199.08Z" fill="#E1E9F2"/>
<path id="Vector_22" d="M315.919 199.393C316.267 200.049 317.179 201.536 318.652 202.396C318.906 202.545 319.234 202.39 319.266 202.104C319.384 201.043 319.544 198.747 318.918 197.441C318.808 197.21 318.502 197.144 318.298 197.304C317.84 197.664 316.995 198.302 316.06 198.883C315.884 198.992 315.823 199.213 315.919 199.393Z" fill="#91AAC4"/>
<path id="Vector_23" d="M399.247 172.037L396.36 178.429C396.181 178.825 396.367 179.287 396.775 179.46C399.755 180.729 403.23 179.411 404.537 176.517L407.424 170.124C407.603 169.728 407.417 169.267 407.01 169.094C404.03 167.825 400.554 169.143 399.247 172.037Z" fill="#2F3F4A"/>
</g>
<g id="SpaceShip">
<ellipse id="Ellipse" cx="466.47" cy="60.0882" rx="69.9705" ry="28.6043" fill="#3B8D99"/>
<g id="Ellipse 2.1" filter="url(#filter2_d)">
<ellipse cx="466.471" cy="53.4871" rx="33.8851" ry="14.0821" fill="#AA4B6B"/>
</g>
<path id="Ellipse 3.1" d="M483.633 48.2357C483.633 53.0803 475.752 57.0077 466.03 57.0077C456.309 57.0077 448.428 53.0803 448.428 48.2357C448.428 43.3911 456.309 36.7646 466.03 36.7646C475.752 36.7646 483.633 43.3911 483.633 48.2357Z" fill="#1F1F25"/>
</g>
</g>
<g id="Fog" opacity="0.06" filter="url(#filter3_d)">
<path d="M-1275.27 171.313L-1064.79 140.014C-1037.27 135.922 -1009.43 134.431 -981.639 135.561L-783.8 143.6L-546.634 172.206L-413.731 183.38C-403.431 184.246 -393.071 184.136 -382.791 183.052L-106.268 153.89L149.203 135.3L471.095 145.055C473.011 145.113 474.92 145.332 476.799 145.711L632.289 177.033C668.281 184.283 697.247 147.557 681.81 114.245C679.575 109.421 674.84 106.243 669.529 106.001L313.229 89.7908L37.1021 89.6278L-108.529 76.1103C-166.198 70.7575 -224.262 71.2988 -281.821 77.726L-363.71 86.8698L-532.162 105.679L-799.023 64.6512C-843.221 57.8561 -888.029 55.9175 -932.649 58.87L-1063.78 67.5472L-1275.17 88.8528L-1275.27 171.313Z" fill="#B8B8B8"/>
</g>
<g id="Fog2" opacity="0.04" filter="url(#filter4_d)">
<path d="M-1238.55 104.537L-1058.19 83.3283C-1036.25 80.7485 -1014.15 79.8134 -992.067 80.5309L-785.651 87.2384L-548.521 109.991L-412.461 119.101C-404.271 119.649 -396.051 119.582 -387.87 118.9L-108.242 95.572L147.176 80.8901L471.89 88.7796L700.835 125.695C707.467 126.764 712.341 119.62 708.928 113.835C688.436 79.1045 651.66 57.2079 611.361 55.743L311.159 44.8307L35.0843 44.6315L-128.315 32.5569C-174.188 29.167 -220.26 29.4976 -266.08 33.5455L-365.654 42.3422L-440.23 48.9305C-502.617 54.442 -565.411 53.3897 -627.579 45.7909L-810.466 23.4364C-848.334 18.8076 -886.534 17.481 -924.633 19.4717L-1065.6 26.837L-1249.3 41.351C-1264.66 42.5643 -1276.5 55.3802 -1276.5 70.7849C-1276.5 91.1271 -1258.75 106.913 -1238.55 104.537Z" fill="#B8B8B8"/>
</g>
<g id="BuildingMiddle">
<rect id="Front" x="651" y="114.32" width="116.109" height="219.68" fill="#090909"/>
<g id="Windows">
<rect id="Rectangle 2.6" x="665.351" y="196.7" width="22.1781" height="25.2632" fill="#582838"/>
<rect id="Rectangle 2.7" x="697.966" y="196.7" width="22.1781" height="25.2632" fill="#582838"/>
<rect id="Rectangle 2.9" x="665.351" y="230.75" width="22.1781" height="25.2632" fill="#582838"/>
<rect id="Rectangle 2.10" x="697.966" y="230.75" width="22.1781" height="25.2632" fill="#582838"/>
<rect id="Rectangle 2" x="665.351" y="128.6" width="22.1781" height="25.2632" fill="#582838"/>
<rect id="Rectangle 2.1" x="697.966" y="128.599" width="22.1781" height="25.2632" fill="#582838"/>
<rect id="Rectangle 2.3" x="665.351" y="162.649" width="22.1781" height="25.2632" fill="#582838"/>
<rect id="Rectangle 2.4" x="697.966" y="162.649" width="22.1781" height="25.2632" fill="#582838"/>
</g>
<path id="Top" d="M673.446 94.001H776.893L767.109 114.321H651L673.446 94.001Z" fill="#313131"/>
</g>
<g id="BuildingMiddle_2">
<rect id="Front_2" x="98" y="53.135" width="116.109" height="260.918" fill="#B8B8B8"/>
<g id="Windows_2">
<rect id="Rectangle 2.6_2" x="112.351" y="150.979" width="22.1781" height="30.0056" fill="#239494"/>
<rect id="Rectangle 2.7_2" x="144.966" y="150.979" width="22.1781" height="30.0056" fill="#239494"/>
<rect id="Rectangle 2.8" x="177.58" y="150.979" width="22.1781" height="30.0056" fill="#239494"/>
<rect id="Rectangle 2.9_2" x="112.351" y="191.422" width="22.1781" height="30.0056" fill="#239494"/>
<rect id="Rectangle 2.10_2" x="144.966" y="191.422" width="22.1781" height="30.0056" fill="#239494"/>
<rect id="Rectangle 2.11" x="177.58" y="191.422" width="22.1781" height="30.0056" fill="#239494"/>
<rect id="Rectangle 2_2" x="112.352" y="70.0952" width="22.1781" height="30.0056" fill="#239494"/>
<rect id="Rectangle 2.1_2" x="144.966" y="70.0945" width="22.1781" height="30.0056" fill="#239494"/>
<rect id="Rectangle 2.2" x="177.58" y="70.0945" width="22.1781" height="30.0056" fill="#239494"/>
<rect id="Rectangle 2.3_2" x="112.351" y="110.537" width="22.1781" height="30.0056" fill="#239494"/>
<rect id="Rectangle 2.4_2" x="144.966" y="110.537" width="22.1781" height="30.0056" fill="#239494"/>
<rect id="Rectangle 2.5" x="177.58" y="110.537" width="22.1781" height="30.0056" fill="#239494"/>
</g>
<path id="Side" d="M214.108 53.135L223.893 29V314.053H214.108V53.135Z" fill="black"/>
<path id="Top_2" d="M120.446 29.001H223.893L214.109 53.1359H98L120.446 29.001Z" fill="#535353"/>
</g>
<g id="BuildingBack">
<rect id="Rectangle" x="550" y="81.707" width="116.109" height="256.293" fill="#404040"/>
<g id="Windows_3">
<rect id="Rectangle 2.6_3" x="564.351" y="177.817" width="22.1781" height="29.4737" fill="#7DAEAA"/>
<rect id="Rectangle 2.7_3" x="596.965" y="177.817" width="22.1781" height="29.4737" fill="#7DAEAA"/>
<rect id="Rectangle 2.8_2" x="629.58" y="177.817" width="22.1781" height="29.4737" fill="#7DAEAA"/>
<rect id="Rectangle 2.9_3" x="564.351" y="217.542" width="22.1781" height="29.4737" fill="#7DAEAA"/>
<rect id="Rectangle 2.10_3" x="596.965" y="217.542" width="22.1781" height="29.4737" fill="#7DAEAA"/>
<rect id="Rectangle 2.11_2" x="629.58" y="217.542" width="22.1781" height="29.4737" fill="#7DAEAA"/>
<rect id="Rectangle 2_3" x="564.351" y="98.3657" width="22.1781" height="29.4737" fill="#7DAEAA"/>
<rect id="Rectangle 2.1_3" x="596.965" y="98.3657" width="22.1781" height="29.4737" fill="#7DAEAA"/>
<rect id="Rectangle 2.2_2" x="629.58" y="98.3657" width="22.1781" height="29.4737" fill="#7DAEAA"/>
<rect id="Rectangle 2.3_3" x="564.351" y="138.091" width="22.1781" height="29.4737" fill="#7DAEAA"/>
<rect id="Rectangle 2.4_3" x="596.965" y="138.091" width="22.1781" height="29.4737" fill="#7DAEAA"/>
<rect id="Rectangle 2.5_2" x="629.58" y="138.091" width="22.1781" height="29.4737" fill="#7DAEAA"/>
</g>
<path id="Side_2" d="M666.108 81.7071L681.764 58V338H666.108V81.7071Z" fill="black"/>
<path id="Top_3" d="M578.375 58.0002H681.764L666.109 81.7073H550L578.375 58.0002Z" fill="#252525"/>
</g>
<g id="BuildingMiddle_3">
<rect id="Front_3" y="105.744" width="116.109" height="224.256" fill="#CDCDCD"/>
<g id="Windows_4">
<rect id="Rectangle 2.6_4" x="14.3506" y="189.84" width="22.1781" height="25.7895" fill="#0C4040"/>
<rect id="Rectangle 2.7_4" x="46.9658" y="189.84" width="22.1781" height="25.7895" fill="#0C4040"/>
<rect id="Rectangle 2.8_3" x="79.5801" y="189.84" width="22.1781" height="25.7895" fill="#0C4040"/>
<rect id="Rectangle 2.9_4" x="14.3506" y="224.6" width="22.1781" height="25.7895" fill="#0C4040"/>
<rect id="Rectangle 2.10_4" x="46.9658" y="224.6" width="22.1781" height="25.7895" fill="#0C4040"/>
<rect id="Rectangle 2.11_3" x="79.5801" y="224.6" width="22.1781" height="25.7895" fill="#0C4040"/>
<rect id="Rectangle 2_4" x="14.3506" y="120.321" width="22.1781" height="25.7895" fill="#0C4040"/>
<rect id="Rectangle 2.1_4" x="46.9658" y="120.32" width="22.1781" height="25.7895" fill="#0C4040"/>
<rect id="Rectangle 2.2_3" x="79.5801" y="120.32" width="22.1781" height="25.7895" fill="#0C4040"/>
<rect id="Rectangle 2.3_4" x="14.3506" y="155.08" width="22.1781" height="25.7895" fill="#0C4040"/>
<rect id="Rectangle 2.4_4" x="46.9658" y="155.08" width="22.1781" height="25.7895" fill="#0C4040"/>
<rect id="Rectangle 2.5_3" x="79.5801" y="155.08" width="22.1781" height="25.7895" fill="#0C4040"/>
</g>
<path id="Side_3" d="M116.108 105.744L125.893 85V330H116.108V105.744Z" fill="black"/>
<path id="Top_4" d="M22.4461 85.001H125.893L116.109 105.745H0L22.4461 85.001Z" fill="#535353"/>
</g>
<g id="MountainsFG" filter="url(#filter5_d)">
<path d="M720 351V205.469C549.34 238.653 375.193 250.307 201.633 240.158L177.5 238.747L-87 202.461C-107.042 200.3 -117.064 199.219 -126.743 198.295C-227.35 188.691 -328.646 188.719 -429.248 198.38C-438.925 199.309 -448.616 200.36 -467.995 202.46L-468 202.461L-738.5 238.747L-770.4 240.568C-942.415 250.384 -1114.66 225.711 -1277 168V351H720Z" fill="#1F1F25"/>
</g>
</g>
<defs>
<filter id="filter0_d" x="129" y="25.2703" width="385.109" height="281.331" filterUnits="userSpaceOnUse" color-interpolation-filters="sRGB">
<feFlood flood-opacity="0" result="BackgroundImageFix"/>
<feColorMatrix in="SourceAlpha" type="matrix" values="0 0 0 0 0 0 0 0 0 0 0 0 0 0 0 0 0 0 127 0"/>
<feOffset dy="4"/>
<feGaussianBlur stdDeviation="20"/>
<feColorMatrix type="matrix" values="0 0 0 0 1 0 0 0 0 1 0 0 0 0 1 0 0 0 0.5 0"/>
<feBlend mode="normal" in2="BackgroundImageFix" result="effect1_dropShadow"/>
<feBlend mode="normal" in="SourceGraphic" in2="effect1_dropShadow" result="shape"/>
</filter>
<filter id="filter1_d" x="286.5" y="127.484" width="131.073" height="95.3633" filterUnits="userSpaceOnUse" color-interpolation-filters="sRGB">
<feFlood flood-opacity="0" result="BackgroundImageFix"/>
<feColorMatrix in="SourceAlpha" type="matrix" values="0 0 0 0 0 0 0 0 0 0 0 0 0 0 0 0 0 0 127 0"/>
<feOffset dy="4"/>
<feGaussianBlur stdDeviation="2"/>
<feColorMatrix type="matrix" values="0 0 0 0 1 0 0 0 0 1 0 0 0 0 1 0 0 0 0.7 0"/>
<feBlend mode="normal" in2="BackgroundImageFix" result="effect1_dropShadow"/>
<feBlend mode="normal" in="SourceGraphic" in2="effect1_dropShadow" result="shape"/>
</filter>
<filter id="filter2_d" x="429.065" y="39.405" width="74.8112" height="35.2053" filterUnits="userSpaceOnUse" color-interpolation-filters="sRGB">
<feFlood flood-opacity="0" result="BackgroundImageFix"/>
<feColorMatrix in="SourceAlpha" type="matrix" values="0 0 0 0 0 0 0 0 0 0 0 0 0 0 0 0 0 0 127 0"/>
<feOffset dy="3.52053"/>
<feGaussianBlur stdDeviation="1.76026"/>
<feColorMatrix type="matrix" values="0 0 0 0 0.808398 0 0 0 0 0.174785 0 0 0 0 0.388212 0 0 0 1 0"/>
<feBlend mode="normal" in2="BackgroundImageFix" result="effect1_dropShadow"/>
<feBlend mode="normal" in="SourceGraphic" in2="effect1_dropShadow" result="shape"/>
</filter>
<filter id="filter3_d" x="-1292.87" y="-4.07673" width="1996.53" height="188.033" filterUnits="userSpaceOnUse" color-interpolation-filters="sRGB">
<feFlood flood-opacity="0" result="BackgroundImageFix"/>
<feColorMatrix in="SourceAlpha" type="matrix" values="0 0 0 0 0 0 0 0 0 0 0 0 0 0 0 0 0 0 127 0"/>
<feOffset dy="-44.0066"/>
<feGaussianBlur stdDeviation="8.80131"/>
<feColorMatrix type="matrix" values="0 0 0 0 0 0 0 0 0 0 0 0 0 0 0 0 0 0 0.6 0"/>
<feBlend mode="normal" in2="BackgroundImageFix" result="effect1_dropShadow"/>
<feBlend mode="normal" in="SourceGraphic" in2="effect1_dropShadow" result="shape"/>
</filter>
<filter id="filter4_d" x="-1294.17" y="-43.5076" width="2021.94" height="169.319" filterUnits="userSpaceOnUse" color-interpolation-filters="sRGB">
<feFlood flood-opacity="0" result="BackgroundImageFix"/>
<feColorMatrix in="SourceAlpha" type="matrix" values="0 0 0 0 0 0 0 0 0 0 0 0 0 0 0 0 0 0 127 0"/>
<feOffset dy="-44.0066"/>
<feGaussianBlur stdDeviation="8.80131"/>
<feColorMatrix type="matrix" values="0 0 0 0 0 0 0 0 0 0 0 0 0 0 0 0 0 0 0.6 0"/>
<feBlend mode="normal" in2="BackgroundImageFix" result="effect1_dropShadow"/>
<feBlend mode="normal" in="SourceGraphic" in2="effect1_dropShadow" result="shape"/>
</filter>
<filter id="filter5_d" x="-1294.6" y="106.391" width="2032.21" height="244.609" filterUnits="userSpaceOnUse" color-interpolation-filters="sRGB">
<feFlood flood-opacity="0" result="BackgroundImageFix"/>
<feColorMatrix in="SourceAlpha" type="matrix" values="0 0 0 0 0 0 0 0 0 0 0 0 0 0 0 0 0 0 127 0"/>
<feOffset dy="-44.0066"/>
<feGaussianBlur stdDeviation="8.80131"/>
<feColorMatrix type="matrix" values="0 0 0 0 0 0 0 0 0 0 0 0 0 0 0 0 0 0 0.6 0"/>
<feBlend mode="normal" in2="BackgroundImageFix" result="effect1_dropShadow"/>
<feBlend mode="normal" in="SourceGraphic" in2="effect1_dropShadow" result="shape"/>
</filter>
<clipPath id="clip0">
<rect width="720" height="351" fill="white"/>
</clipPath>
</defs>
</svg>
