<svg width="1997" height="351" viewBox="0 0 1997 351" fill="none" xmlns="http://www.w3.org/2000/svg">
<g clip-path="url(#clip0)">
<rect width="1997" height="351" fill="#1F1F25"/>
<path d="M1234 50L1236.12 52.7639H1242.97L1237.43 54.4721L1239.55 57.2361L1234 55.5279L1228.46 57.2361L1230.58 54.4721L1225.03 52.7639H1231.89L1234 50Z" fill="#3B8D99"/>
<path d="M1274.08 62L1276.2 64.7639H1283.05L1277.51 66.4721L1279.63 69.2361L1274.08 67.5279L1268.54 69.2361L1270.66 66.4721L1265.11 64.7639H1271.97L1274.08 62Z" fill="#3B8D99"/>
<path d="M1370.74 48L1372.86 50.7639H1379.71L1374.17 52.4721L1376.29 55.2361L1370.74 53.5279L1365.2 55.2361L1367.32 52.4721L1361.77 50.7639H1368.63L1370.74 48Z" fill="#239494"/>
<path d="M1120.84 71L1122.96 73.7639H1129.81L1124.27 75.4721L1126.38 78.2361L1120.84 76.5279L1115.3 78.2361L1117.41 75.4721L1111.87 73.7639H1118.72L1120.84 71Z" fill="#265B63"/>
<path d="M1193.92 89L1196.04 91.7639H1202.89L1197.35 93.4721L1199.47 96.2361L1193.92 94.5279L1188.38 96.2361L1190.5 93.4721L1184.96 91.7639H1191.81L1193.92 89Z" fill="#265B63"/>
<path d="M1453.26 55L1455.38 57.7639H1462.23L1456.68 59.4721L1458.8 62.2361L1453.26 60.5279L1447.72 62.2361L1449.83 59.4721L1444.29 57.7639H1451.14L1453.26 55Z" fill="#265B63"/>
<path d="M1396.68 79L1398.79 81.7639H1405.65L1400.1 83.4721L1402.22 86.2361L1396.68 84.5279L1391.13 86.2361L1393.25 83.4721L1387.71 81.7639H1394.56L1396.68 79Z" fill="#3B8D99"/>
<path d="M1234 50L1236.12 52.7639H1242.97L1237.43 54.4721L1239.55 57.2361L1234 55.5279L1228.46 57.2361L1230.58 54.4721L1225.03 52.7639H1231.89L1234 50Z" fill="#3B8D99"/>
<path d="M1274.08 62L1276.2 64.7639H1283.05L1277.51 66.4721L1279.63 69.2361L1274.08 67.5279L1268.54 69.2361L1270.66 66.4721L1265.11 64.7639H1271.97L1274.08 62Z" fill="#3B8D99"/>
<path d="M1370.74 48L1372.86 50.7639H1379.71L1374.17 52.4721L1376.29 55.2361L1370.74 53.5279L1365.2 55.2361L1367.32 52.4721L1361.77 50.7639H1368.63L1370.74 48Z" fill="#239494"/>
<path d="M1120.84 71L1122.96 73.7639H1129.81L1124.27 75.4721L1126.38 78.2361L1120.84 76.5279L1115.3 78.2361L1117.41 75.4721L1111.87 73.7639H1118.72L1120.84 71Z" fill="#670852"/>
<path d="M1193.92 89L1196.04 91.7639H1202.89L1197.35 93.4721L1199.47 96.2361L1193.92 94.5279L1188.38 96.2361L1190.5 93.4721L1184.96 91.7639H1191.81L1193.92 89Z" fill="#265B63"/>
<path d="M1396.68 79L1398.79 81.7639H1405.65L1400.1 83.4721L1402.22 86.2361L1396.68 84.5279L1391.13 86.2361L1393.25 83.4721L1387.71 81.7639H1394.56L1396.68 79Z" fill="#3B8D99"/>
<path d="M1806.9 116L1809.01 118.764H1815.86L1810.32 120.472L1812.44 123.236L1806.9 121.528L1801.35 123.236L1803.47 120.472L1797.93 118.764H1804.78L1806.9 116Z" fill="#3B8D99"/>
<path d="M1846.98 128L1849.09 130.764H1855.94L1850.4 132.472L1852.52 135.236L1846.98 133.528L1841.43 135.236L1843.55 132.472L1838.01 130.764H1844.86L1846.98 128Z" fill="#582838"/>
<path d="M1943.64 114L1945.75 116.764H1952.61L1947.06 118.472L1949.18 121.236L1943.64 119.528L1938.09 121.236L1940.21 118.472L1934.67 116.764H1941.52L1943.64 114Z" fill="#670852"/>
<path d="M1693.73 137L1695.85 139.764H1702.7L1697.16 141.472L1699.28 144.236L1693.73 142.528L1688.19 144.236L1690.31 141.472L1684.76 139.764H1691.61L1693.73 137Z" fill="#265B63"/>
<path d="M1969.57 145L1971.69 147.764H1978.54L1973 149.472L1975.11 152.236L1969.57 150.528L1964.03 152.236L1966.14 149.472L1960.6 147.764H1967.45L1969.57 145Z" fill="#3B8D99"/>
<path d="M1580.57 61L1582.69 63.7639H1589.54L1583.99 65.4721L1586.11 68.2361L1580.57 66.5279L1575.03 68.2361L1577.14 65.4721L1571.6 63.7639H1578.45L1580.57 61Z" fill="#AA4B6B"/>
<path d="M1274.08 104L1276.2 106.764H1283.05L1277.51 108.472L1279.63 111.236L1274.08 109.528L1268.54 111.236L1270.66 108.472L1265.11 106.764H1271.97L1274.08 104Z" fill="#582838"/>
<path d="M1242.4 140.944L1237.59 138.876L1231.47 140.178L1234.62 137.597L1229.8 135.529L1236.56 136.002L1239.71 133.422L1240.74 136.295L1247.5 136.769L1241.38 138.071L1242.4 140.944Z" fill="#582838"/>
<path d="M1071.71 188.42L1066.9 186.352L1060.77 187.654L1063.92 185.073L1059.11 183.005L1065.87 183.478L1069.02 180.898L1070.05 183.771L1076.81 184.244L1070.68 185.547L1071.71 188.42Z" fill="#3B8D99"/>
<path d="M1154.9 142.77L1150.08 140.701L1143.96 142.003L1147.11 139.423L1142.3 137.354L1149.06 137.828L1152.21 135.247L1153.24 138.121L1160 138.594L1153.87 139.896L1154.9 142.77Z" fill="#265B63"/>
<path d="M598.263 184.145L593.45 182.077L587.325 183.379L590.476 180.798L585.663 178.73L592.423 179.203L595.574 176.623L596.601 179.496L603.361 179.97L597.236 181.272L598.263 184.145Z" fill="#265B63"/>
<path d="M343.216 229.42L338.404 227.352L332.279 228.654L335.429 226.073L330.617 224.005L337.377 224.478L340.528 221.898L341.555 224.771L348.315 225.244L342.189 226.547L343.216 229.42Z" fill="#3B8D99"/>
<path d="M259.946 97.4274L255.133 95.3589L249.008 96.6611L252.159 94.0804L247.346 92.0119L254.106 92.4855L257.257 89.9049L258.284 92.7782L265.044 93.2518L258.919 94.554L259.946 97.4274Z" fill="#3B8D99"/>
<path d="M211.438 94.317L206.625 92.2485L200.5 93.5507L203.651 90.9701L198.838 88.9016L205.598 89.3752L208.749 86.7945L209.776 89.6679L216.536 90.1415L210.411 91.4437L211.438 94.317Z" fill="#3B8D99"/>
<path d="M139.815 125.204L135.002 123.136L128.877 124.438L132.028 121.858L127.215 119.789L133.975 120.263L137.126 117.682L138.153 120.555L144.913 121.029L138.788 122.331L139.815 125.204Z" fill="#239494"/>
<path d="M338.928 57.1451L334.116 55.0766L327.99 56.3789L331.141 53.7982L326.329 51.7297L333.089 52.2033L336.239 49.6227L337.266 52.496L344.026 52.9696L337.901 54.2718L338.928 57.1451Z" fill="#265B63"/>
<path d="M254.576 54.9442L249.763 52.8757L243.638 54.1779L246.789 51.5973L241.976 49.5288L248.736 50.0024L251.887 47.4217L252.914 50.2951L259.674 50.7687L253.549 52.0709L254.576 54.9442Z" fill="#265B63"/>
<path d="M83.8824 102.42L79.0697 100.352L72.9445 101.654L76.0954 99.0731L71.2827 97.0046L78.0427 97.4782L81.1935 94.8976L82.2206 97.7709L88.9805 98.2445L82.8553 99.5467L83.8824 102.42Z" fill="#AA4B6B"/>
<path d="M167.07 56.7697L162.257 54.7011L156.132 56.0034L159.283 53.4227L154.47 51.3542L161.23 51.8278L164.381 49.2472L165.408 52.1205L172.168 52.5941L166.043 53.8963L167.07 56.7697Z" fill="#265B63"/>
<path d="M417.588 92.2351L423.763 93.4935L428.493 91.391L427.58 94.2712L433.756 95.5296L427.016 96.0513L426.103 98.9316L422.85 96.3737L416.11 96.8954L420.84 94.7929L417.588 92.2351Z" fill="#582838"/>
<path d="M465.724 88.2207L471.9 89.4791L476.63 87.3766L475.717 90.2568L481.893 91.5152L475.153 92.0369L474.24 94.9171L470.987 92.3593L464.247 92.881L468.977 90.7785L465.724 88.2207Z" fill="#3B8D99"/>
<path d="M508.577 48.8938L514.753 50.1522L519.483 48.0497L518.57 50.9299L524.745 52.1883L518.005 52.71L517.092 55.5902L513.84 53.0324L507.099 53.5541L511.829 51.4516L508.577 48.8938Z" fill="#239494"/>
<path d="M375.281 141.459L381.457 142.717L386.187 140.615L385.274 143.495L391.45 144.754L384.709 145.275L383.796 148.155L380.544 145.598L373.803 146.119L378.533 144.017L375.281 141.459Z" fill="#265B63"/>
<path d="M456.437 131.458L462.613 132.717L467.343 130.614L466.43 133.494L472.606 134.753L465.866 135.274L464.952 138.155L461.7 135.597L454.96 136.119L459.69 134.016L456.437 131.458Z" fill="#265B63"/>
<path d="M579.354 62.3366L585.53 63.595L590.26 61.4925L589.346 64.3728L595.522 65.6312L588.782 66.1529L587.869 69.0331L584.616 66.4753L577.876 66.997L582.606 64.8945L579.354 62.3366Z" fill="#AA4B6B"/>
<path d="M537.359 117.216L543.535 118.474L548.265 116.372L547.352 119.252L553.528 120.51L546.787 121.032L545.874 123.912L542.622 121.354L535.881 121.876L540.612 119.774L537.359 117.216Z" fill="#265B63"/>
<path d="M858.772 96.4274L853.959 94.3589L847.834 95.6611L850.985 93.0804L846.172 91.0119L852.932 91.4855L856.083 88.9049L857.11 91.7782L863.87 92.2518L857.745 93.554L858.772 96.4274Z" fill="#3B8D99"/>
<path d="M810.264 93.317L805.452 91.2485L799.326 92.5507L802.477 89.9701L797.665 87.9016L804.425 88.3752L807.575 85.7945L808.602 88.6679L815.362 89.1415L809.237 90.4437L810.264 93.317Z" fill="#3B8D99"/>
<path d="M738.641 124.204L733.829 122.136L727.703 123.438L730.854 120.858L726.042 118.789L732.801 119.263L735.952 116.682L736.979 119.555L743.739 120.029L737.614 121.331L738.641 124.204Z" fill="#239494"/>
<path d="M937.754 56.1451L932.942 54.0766L926.817 55.3789L929.967 52.7982L925.155 50.7297L931.915 51.2033L935.066 48.6227L936.093 51.496L942.853 51.9696L936.727 53.2718L937.754 56.1451Z" fill="#265B63"/>
<path d="M853.402 53.9442L848.589 51.8757L842.464 53.1779L845.615 50.5973L840.802 48.5288L847.562 49.0024L850.713 46.4217L851.74 49.2951L858.5 49.7687L852.375 51.0709L853.402 53.9442Z" fill="#265B63"/>
<path d="M682.709 101.42L677.896 99.3515L671.771 100.654L674.922 98.0731L670.109 96.0046L676.869 96.4782L680.02 93.8976L681.047 96.7709L687.807 97.2445L681.681 98.5467L682.709 101.42Z" fill="#3B8D99"/>
<path d="M765.896 55.7697L761.083 53.7011L754.958 55.0034L758.109 52.4227L753.296 50.3542L760.056 50.8278L763.207 48.2472L764.234 51.1205L770.994 51.5941L764.869 52.8963L765.896 55.7697Z" fill="#265B63"/>
<g opacity="0.05" filter="url(#filter0_d)">
<path d="M59.0259 197.387L258.477 166.561C287.029 162.148 315.945 160.538 344.81 161.756L532.026 169.652L760.279 198.247L887.004 209.311C897.702 210.245 908.466 210.126 919.14 208.956L1184.1 179.91L1429.97 161.308L1665.06 168.699C1716.61 170.32 1767.92 176.486 1818.39 187.124L1978.96 220.971C1954.48 166.615 1901.55 130.607 1842.01 127.795L1587.83 115.792L1322.08 115.641L1188.54 102.768C1128.65 96.9953 1068.32 97.5821 1008.56 104.519L936.332 112.902L774.209 131.719L522.401 91.5055C476.537 84.181 429.989 82.0926 383.653 85.2807L262.571 93.6116L59.127 114.927L59.0259 197.387Z" fill="#B8B8B8"/>
</g>
<g opacity="0.05" filter="url(#filter1_d)">
<path d="M18.0206 153.12L231.986 127.489C254.318 124.813 276.823 123.843 299.303 124.586L501.045 131.25L734.147 153.997L867.476 163.076C875.807 163.644 884.169 163.574 892.489 162.867L1166.95 139.57L1418.03 124.882L1737.23 132.765L1978.68 172.364C1953.31 128.613 1907.26 100.942 1856.71 99.0745L1579.23 88.8196L1307.84 88.6261L1149.57 76.7319C1102.92 73.2254 1056.05 73.5685 1009.45 77.7576L913.911 86.3452L748.355 101.227L474.628 67.1969C438.752 62.7367 402.552 61.459 366.451 63.3786L225.854 70.8546L18.1007 87.7065L18.0206 153.12Z" fill="#B8B8B8"/>
</g>
<rect x="67" y="113.998" width="116.109" height="227.002" fill="#090909"/>
<rect x="81.3506" y="199.124" width="22.1781" height="26.1053" fill="#582838"/>
<rect x="113.966" y="199.124" width="22.1781" height="26.1053" fill="#582838"/>
<rect x="146.58" y="199.124" width="22.1781" height="26.1053" fill="#582838"/>
<rect x="81.3506" y="234.309" width="22.1781" height="26.1053" fill="#582838"/>
<rect x="113.966" y="234.309" width="22.1781" height="26.1053" fill="#582838"/>
<rect x="146.58" y="234.309" width="22.1781" height="26.1053" fill="#582838"/>
<rect x="81.3511" y="128.753" width="22.1781" height="26.1053" fill="#582838"/>
<rect x="113.966" y="128.753" width="22.1781" height="26.1053" fill="#582838"/>
<rect x="146.58" y="128.753" width="22.1781" height="26.1053" fill="#582838"/>
<rect x="81.3506" y="163.938" width="22.1781" height="26.1053" fill="#582838"/>
<rect x="113.966" y="163.938" width="22.1781" height="26.1053" fill="#582838"/>
<rect x="146.58" y="163.938" width="22.1781" height="26.1053" fill="#582838"/>
<path d="M183.109 113.998L192.893 93V341H183.109V113.998Z" fill="black"/>
<path d="M89.4461 93.001H192.893L183.109 113.999H67L89.4461 93.001Z" fill="#313131"/>
<rect x="1314" y="110.32" width="116.109" height="219.68" fill="#090909"/>
<rect x="1328.35" y="192.7" width="22.1781" height="25.2632" fill="#582838"/>
<rect x="1360.97" y="192.7" width="22.1781" height="25.2632" fill="#582838"/>
<rect x="1393.58" y="192.7" width="22.1781" height="25.2632" fill="#582838"/>
<rect x="1328.35" y="226.751" width="22.1781" height="25.2632" fill="#582838"/>
<rect x="1360.97" y="226.751" width="22.1781" height="25.2632" fill="#582838"/>
<rect x="1393.58" y="226.751" width="22.1781" height="25.2632" fill="#582838"/>
<rect x="1328.35" y="124.6" width="22.1781" height="25.2632" fill="#582838"/>
<rect x="1360.97" y="124.6" width="22.1781" height="25.2632" fill="#582838"/>
<rect x="1393.58" y="124.6" width="22.1781" height="25.2632" fill="#582838"/>
<rect x="1328.35" y="158.65" width="22.1781" height="25.2632" fill="#582838"/>
<rect x="1360.97" y="158.65" width="22.1781" height="25.2632" fill="#582838"/>
<rect x="1393.58" y="158.65" width="22.1781" height="25.2632" fill="#582838"/>
<path d="M1430.11 110.32L1439.89 90V330H1430.11V110.32Z" fill="black"/>
<path d="M1336.45 90.001H1439.89L1430.11 110.321H1314L1336.45 90.001Z" fill="#313131"/>
<g filter="url(#filter2_d)">
<path d="M1490.56 227.682L1637.28 138.09L1760.08 74.5298L1667.8 251.786L1581.88 245.281L1490.56 227.682Z" fill="#FCFCFC"/>
</g>
<g filter="url(#filter3_d)">
<path d="M1653.58 158.875C1654.43 158.94 1655.07 159.685 1655.01 160.539L1654.7 164.51C1654.64 165.364 1653.89 166.003 1653.04 165.938C1652.18 165.873 1651.54 165.128 1651.61 164.274L1651.91 160.303C1651.98 159.449 1652.72 158.81 1653.58 158.875Z" fill="#FF968A"/>
<path d="M1663.43 159.625C1664.29 159.69 1664.93 160.435 1664.86 161.289L1664.56 165.26C1664.49 166.114 1663.75 166.753 1662.89 166.688C1662.04 166.623 1661.4 165.878 1661.46 165.024L1661.76 161.053C1661.83 160.199 1662.57 159.56 1663.43 159.625Z" fill="#FF968A"/>
<path d="M1658.57 157.892C1659.42 157.957 1660.06 158.702 1660 159.556L1659.69 163.527C1659.63 164.381 1658.88 165.02 1658.03 164.955C1657.17 164.89 1656.53 164.145 1656.6 163.291L1656.9 159.32C1656.97 158.466 1657.71 157.827 1658.57 157.892Z" fill="#FF968A"/>
<path d="M1690.93 183.837C1691.73 184.14 1692.14 185.035 1691.83 185.836L1688.97 193.432C1687.46 197.425 1682.98 199.446 1678.99 197.939C1678.19 197.636 1677.78 196.741 1678.08 195.939C1678.39 195.138 1679.28 194.734 1680.09 195.037C1682.48 195.94 1685.16 194.728 1686.06 192.334L1688.93 184.739C1689.23 183.938 1690.13 183.534 1690.93 183.837Z" fill="#91AAC4"/>
<path d="M1634.57 146.48L1635.28 144.197C1635.36 143.925 1635.64 143.746 1635.96 143.77L1642.18 144.245C1642.61 144.278 1642.92 144.64 1642.85 145.025L1642.22 148.666L1638.27 171.577L1629.8 174.258L1637.45 149.251C1637.47 149.179 1637.47 149.106 1637.47 149.033C1637.45 148.856 1637.34 148.691 1637.17 148.587L1634.84 147.148C1634.6 147 1634.49 146.732 1634.57 146.48Z" fill="#91AAC4"/>
<path d="M1634.53 147.022L1635.27 144.289C1635.36 143.963 1635.64 143.746 1635.96 143.77L1642.18 144.245C1642.61 144.278 1642.91 144.705 1642.84 145.166L1642.15 149.516L1637.39 150.024C1637.37 149.812 1637.27 149.618 1637.1 149.496L1634.79 147.814C1634.55 147.642 1634.45 147.323 1634.53 147.022Z" fill="#3F5666"/>
<path d="M1670.65 163.025L1671.39 153.362C1671.4 153.198 1671.36 153.037 1671.27 152.906C1671.22 152.838 1671.17 152.78 1671.1 152.729L1668.34 150.718C1668.17 150.598 1668.07 150.414 1668.05 150.213L1667.72 147.04C1667.67 146.595 1668.04 146.217 1668.48 146.251L1675.51 146.787C1675.9 146.817 1676.19 147.161 1676.16 147.555L1674.67 167.196L1668.48 173.603L1657.55 175.311L1666.04 166.103L1670.65 163.025Z" fill="#91AAC4"/>
<path d="M1668.48 146.251L1675.51 146.787C1675.9 146.817 1676.19 147.161 1676.16 147.555L1675.79 152.475L1671.27 152.906C1671.22 152.838 1671.17 152.779 1671.1 152.729L1668.34 150.718C1668.17 150.598 1668.07 150.414 1668.05 150.213L1667.72 147.04C1667.67 146.595 1668.04 146.217 1668.48 146.251Z" fill="#3F5666"/>
<path d="M1658.19 162.78C1652.44 162.34 1647.45 166.16 1647.06 171.311C1646.67 176.462 1651.02 180.994 1656.77 181.433C1662.53 181.872 1667.51 178.052 1667.91 172.901C1668.3 167.75 1663.95 163.219 1658.19 162.78Z" fill="#E8C1B5"/>
<path d="M1663.93 172.598C1663.58 177.14 1659.66 180.645 1654.8 181.109C1655.43 181.27 1656.09 181.381 1656.77 181.432C1662.53 181.872 1667.51 178.052 1667.91 172.901C1668.3 167.75 1663.95 163.218 1658.19 162.779C1657.51 162.727 1656.85 162.737 1656.19 162.799C1660.93 163.996 1664.28 168.055 1663.93 172.598Z" fill="#CCA295"/>
<path d="M1589.83 199.534L1590.15 195.23C1590.35 192.645 1595.29 190.838 1595.29 190.838L1597.52 190.514L1607.13 189.11C1607.13 189.11 1607.15 189.105 1607.18 189.097L1607.18 189.097C1607.65 188.965 1613.86 175.854 1617.56 174.166C1624.38 171.049 1623.76 150.009 1623.76 150.009C1623.76 149.921 1623.73 149.835 1623.7 149.757C1623.66 149.661 1623.6 149.575 1623.52 149.505L1619.96 146.393C1619.75 146.205 1619.67 145.91 1619.76 145.639L1620.57 143.147C1620.67 142.831 1620.98 142.626 1621.32 142.652L1628.08 143.168C1628.45 143.197 1628.76 143.473 1628.82 143.836L1629.46 148.756L1628.28 168.164C1628.33 168.517 1628.63 168.79 1628.99 168.826L1629.72 168.908L1652.83 171.48L1665.06 172.842C1665.27 172.865 1665.48 172.807 1665.65 172.674L1671.04 168.603L1677.04 164.103C1678.04 163.898 1678.04 163.898 1678.04 163.898L1681.05 163.898C1681.49 163.932 1681.88 163.607 1681.92 163.17L1682.65 153.492C1682.66 153.364 1682.64 153.235 1682.59 153.12C1682.54 153.012 1682.47 152.912 1682.38 152.834L1680.63 151.319C1680.49 151.199 1680.39 151.034 1680.36 150.857L1679.88 148.107C1679.79 147.598 1680.21 147.145 1680.73 147.185L1687.34 147.689C1687.78 147.722 1688.11 148.102 1688.08 148.537L1686.53 168.779C1686.51 169.086 1686.31 169.35 1686.02 169.459L1683.54 171.82C1683.24 171.93 1683.04 172.195 1683.02 172.5L1682.11 185.447L1681.39 195.602C1681.17 198.693 1679.89 201.469 1677.91 203.595C1675.31 206.393 1671.52 208.076 1667.37 207.892L1654.04 206.927L1632.28 205.348L1627.49 205.001L1605.86 206.372C1604.47 206.266 1603.18 205.618 1602.28 204.575L1601.23 203.367C1600.32 202.325 1599.03 201.679 1597.65 201.573L1591.17 201.08C1590.37 201.019 1589.77 200.325 1589.83 199.534Z" fill="#E1E9F2"/>
<path d="M1682.54 168.067C1682.52 168.384 1682.32 168.661 1682.03 168.774L1679.58 171.229C1679.29 171.344 1679.09 171.619 1679.07 171.936L1678.12 185.348L1677.37 195.868C1677.14 199.073 1675.87 201.952 1673.92 204.162C1672.42 205.864 1670.51 207.167 1668.38 207.925C1672.17 207.882 1675.61 206.235 1678.01 203.602C1679.96 201.474 1681.22 198.698 1681.44 195.605L1682.16 185.45L1683.07 172.505C1683.1 172.199 1683.3 171.934 1683.58 171.824L1686.03 169.46C1686.31 169.351 1686.51 169.085 1686.54 168.779L1688.08 148.538C1688.11 148.103 1687.79 147.723 1687.35 147.69L1684.11 147.443L1682.54 168.067Z" fill="#B3D2F2"/>
<path d="M1680.86 147.196L1687.35 147.691C1687.79 147.724 1688.11 148.105 1688.08 148.542L1687.76 152.762L1682.68 153.126C1682.63 153.019 1682.56 152.92 1682.47 152.841L1680.75 151.329C1680.61 151.209 1680.52 151.044 1680.49 150.868L1680.02 148.118C1679.93 147.61 1680.35 147.157 1680.86 147.196Z" fill="#3F5666"/>
<path d="M1620.9 145.728L1621.71 143.234C1621.81 142.919 1622.11 142.714 1622.44 142.739L1629.1 143.247C1629.46 143.275 1629.76 143.549 1629.82 143.912L1630.45 148.831L1624.78 149.839C1624.74 149.742 1624.68 149.657 1624.6 149.586L1621.11 146.482C1620.9 146.293 1620.82 145.998 1620.9 145.728Z" fill="#3F5666"/>
<path d="M1633.03 202.797C1633.49 196.726 1638.79 192.18 1644.86 192.643C1650.93 193.106 1655.48 198.403 1655.01 204.474C1654.95 205.338 1654.78 206.171 1654.53 206.964L1633.14 205.413C1633 204.567 1632.96 203.691 1633.03 202.797Z" fill="#2F3F4A"/>
<path d="M1589.27 199.507L1589.59 195.25C1589.79 192.693 1595.91 191.001 1595.91 191.001L1598.68 190.724C1601.06 194.609 1599.08 198.697 1596.91 201.517L1590.98 201.065C1589.98 200.989 1589.21 200.29 1589.27 199.507Z" fill="#E5BEB3"/>
<path d="M1670.82 193.823C1671.21 188.696 1675.68 184.857 1680.81 185.248C1681.27 185.283 1681.72 185.351 1682.16 185.451L1681.44 195.605C1681.22 198.699 1679.96 201.474 1678.01 203.603C1673.6 202.592 1670.47 198.477 1670.82 193.823Z" fill="#2F3F4A"/>
<path d="M1630.67 168.981L1653.39 171.523C1651.93 176.146 1647.01 179.325 1641.45 178.901C1635.57 178.452 1631.01 174.142 1630.67 168.981Z" fill="#2F3F4A"/>
<path d="M1605.22 199.076C1604.36 199.011 1603.62 199.65 1603.55 200.504C1603.49 201.358 1604.13 202.103 1604.98 202.169C1605.84 202.234 1606.58 201.595 1606.65 200.741C1606.71 199.887 1606.07 199.142 1605.22 199.076Z" fill="#2F3F4A"/>
<path d="M1591.08 198.139C1590.74 198.113 1590.44 198.429 1590.4 198.845C1590.37 199.261 1590.62 199.62 1590.96 199.645C1591.3 199.671 1591.6 199.355 1591.64 198.939C1591.67 198.523 1591.42 198.165 1591.08 198.139Z" fill="#582838" fill-opacity="0.39"/>
<path d="M1606.93 205.356C1607.58 206.613 1609.28 209.464 1612.02 211.113C1612.49 211.398 1613.1 211.102 1613.16 210.553C1613.38 208.519 1613.68 204.117 1612.51 201.615C1612.31 201.172 1611.74 201.045 1611.36 201.353C1610.51 202.042 1608.94 203.265 1607.2 204.378C1606.87 204.587 1606.75 205.011 1606.93 205.356Z" fill="#E1E9F2"/>
<path d="M1608.42 205.679C1608.77 206.354 1609.68 207.886 1611.15 208.772C1611.41 208.925 1611.73 208.766 1611.77 208.471C1611.88 207.378 1612.04 205.013 1611.42 203.668C1611.31 203.43 1611 203.362 1610.8 203.527C1610.34 203.897 1609.5 204.555 1608.56 205.153C1608.38 205.265 1608.32 205.493 1608.42 205.679Z" fill="#91AAC4"/>
<path d="M1691.75 177.5L1688.86 184.085C1688.68 184.493 1688.87 184.968 1689.27 185.147C1692.25 186.453 1695.73 185.096 1697.04 182.115L1699.92 175.53C1700.1 175.122 1699.92 174.647 1699.51 174.469C1696.53 173.162 1693.05 174.519 1691.75 177.5Z" fill="#2F3F4A"/>
</g>
<ellipse cx="1740.97" cy="100.604" rx="69.9705" ry="28.6043" fill="#3B8D99"/>
<g filter="url(#filter4_d)">
<ellipse cx="1740.97" cy="94.0032" rx="33.8851" ry="14.0821" fill="#AA4B6B"/>
</g>
<path d="M1758.13 88.7518C1758.13 93.5964 1750.25 97.5238 1740.53 97.5238C1730.81 97.5238 1722.93 93.5964 1722.93 88.7518C1722.93 83.9072 1730.81 77.2808 1740.53 77.2808C1750.25 77.2808 1758.13 83.9072 1758.13 88.7518Z" fill="#1F1F25"/>
<rect x="282" y="105.76" width="116.109" height="235.24" fill="#404040"/>
<rect x="296.351" y="193.975" width="22.1781" height="27.0526" fill="#AA4B6B"/>
<rect x="328.965" y="193.975" width="22.1781" height="27.0526" fill="#AA4B6B"/>
<rect x="361.58" y="193.975" width="22.1781" height="27.0526" fill="#AA4B6B"/>
<rect x="296.351" y="230.437" width="22.1781" height="27.0526" fill="#AA4B6B"/>
<rect x="328.965" y="230.437" width="22.1781" height="27.0526" fill="#AA4B6B"/>
<rect x="361.58" y="230.437" width="22.1781" height="27.0526" fill="#AA4B6B"/>
<rect x="296.351" y="121.05" width="22.1781" height="27.0526" fill="#AA4B6B"/>
<rect x="328.965" y="121.05" width="22.1781" height="27.0526" fill="#AA4B6B"/>
<rect x="361.58" y="121.05" width="22.1781" height="27.0526" fill="#AA4B6B"/>
<rect x="296.351" y="157.512" width="22.1781" height="27.0526" fill="#AA4B6B"/>
<rect x="328.965" y="157.512" width="22.1781" height="27.0526" fill="#AA4B6B"/>
<rect x="361.58" y="157.512" width="22.1781" height="27.0526" fill="#AA4B6B"/>
<path d="M398.109 105.76L413.764 84V341H398.109V105.76Z" fill="black"/>
<path d="M310.375 84.0002H413.764L398.109 105.76H282L310.375 84.0002Z" fill="#252525"/>
<rect x="377" y="80.135" width="116.109" height="260.918" fill="#B8B8B8"/>
<rect x="391.351" y="177.979" width="22.1781" height="30.0056" fill="#239494"/>
<rect x="423.966" y="177.979" width="22.1781" height="30.0056" fill="#239494"/>
<rect x="456.58" y="177.979" width="22.1781" height="30.0056" fill="#239494"/>
<rect x="391.351" y="218.422" width="22.1781" height="30.0056" fill="#239494"/>
<rect x="423.966" y="218.422" width="22.1781" height="30.0056" fill="#239494"/>
<rect x="456.58" y="218.422" width="22.1781" height="30.0056" fill="#239494"/>
<rect x="391.351" y="97.0952" width="22.1781" height="30.0056" fill="#239494"/>
<rect x="423.966" y="97.0947" width="22.1781" height="30.0056" fill="#239494"/>
<rect x="456.58" y="97.0947" width="22.1781" height="30.0056" fill="#239494"/>
<rect x="391.351" y="137.537" width="22.1781" height="30.0056" fill="#239494"/>
<rect x="423.966" y="137.537" width="22.1781" height="30.0056" fill="#239494"/>
<rect x="456.58" y="137.537" width="22.1781" height="30.0056" fill="#239494"/>
<path d="M493.109 80.135L502.893 56V341.053H493.109V80.135Z" fill="black"/>
<path d="M399.446 56.001H502.893L493.109 80.1359H377L399.446 56.001Z" fill="#535353"/>
<rect x="859" y="61.135" width="116.109" height="260.918" fill="#B8B8B8"/>
<rect x="873.351" y="158.979" width="22.1781" height="30.0056" fill="#239494"/>
<rect x="905.966" y="158.979" width="22.1781" height="30.0056" fill="#239494"/>
<rect x="938.58" y="158.979" width="22.1781" height="30.0056" fill="#239494"/>
<rect x="873.351" y="199.422" width="22.1781" height="30.0056" fill="#239494"/>
<rect x="905.966" y="199.422" width="22.1781" height="30.0056" fill="#239494"/>
<rect x="938.58" y="199.422" width="22.1781" height="30.0056" fill="#239494"/>
<rect x="873.351" y="78.0952" width="22.1781" height="30.0056" fill="#239494"/>
<rect x="905.966" y="78.0947" width="22.1781" height="30.0056" fill="#239494"/>
<rect x="938.58" y="78.0947" width="22.1781" height="30.0056" fill="#239494"/>
<rect x="873.351" y="118.537" width="22.1781" height="30.0056" fill="#239494"/>
<rect x="905.966" y="118.537" width="22.1781" height="30.0056" fill="#239494"/>
<rect x="938.58" y="118.537" width="22.1781" height="30.0056" fill="#239494"/>
<path d="M975.109 61.135L984.893 37V322.053H975.109V61.135Z" fill="black"/>
<path d="M881.446 37.001H984.893L975.109 61.1359H859L881.446 37.001Z" fill="#535353"/>
<rect x="1142" y="73.707" width="116.109" height="256.293" fill="#404040"/>
<rect x="1156.35" y="169.817" width="22.1781" height="29.4737" fill="#7DAEAA"/>
<rect x="1188.97" y="169.817" width="22.1781" height="29.4737" fill="#7DAEAA"/>
<rect x="1221.58" y="169.817" width="22.1781" height="29.4737" fill="#7DAEAA"/>
<rect x="1156.35" y="209.542" width="22.1781" height="29.4737" fill="#7DAEAA"/>
<rect x="1188.97" y="209.542" width="22.1781" height="29.4737" fill="#7DAEAA"/>
<rect x="1221.58" y="209.542" width="22.1781" height="29.4737" fill="#7DAEAA"/>
<rect x="1156.35" y="90.3657" width="22.1781" height="29.4737" fill="#7DAEAA"/>
<rect x="1188.97" y="90.3657" width="22.1781" height="29.4737" fill="#7DAEAA"/>
<rect x="1221.58" y="90.3657" width="22.1781" height="29.4737" fill="#7DAEAA"/>
<rect x="1156.35" y="130.091" width="22.1781" height="29.4737" fill="#7DAEAA"/>
<rect x="1188.97" y="130.091" width="22.1781" height="29.4737" fill="#7DAEAA"/>
<rect x="1221.58" y="130.091" width="22.1781" height="29.4737" fill="#7DAEAA"/>
<path d="M1258.11 73.7071L1273.76 50V330H1258.11V73.7071Z" fill="black"/>
<path d="M1170.37 50.0002H1273.76L1258.11 73.7073H1142L1170.37 50.0002Z" fill="#252525"/>
<rect x="743" y="97.7439" width="116.109" height="224.256" fill="#CDCDCD"/>
<rect x="757.351" y="181.84" width="22.1781" height="25.7895" fill="#0C4040"/>
<rect x="789.966" y="181.84" width="22.1781" height="25.7895" fill="#0C4040"/>
<rect x="822.58" y="181.84" width="22.1781" height="25.7895" fill="#0C4040"/>
<rect x="757.351" y="216.6" width="22.1781" height="25.7895" fill="#0C4040"/>
<rect x="789.966" y="216.6" width="22.1781" height="25.7895" fill="#0C4040"/>
<rect x="822.58" y="216.6" width="22.1781" height="25.7895" fill="#0C4040"/>
<rect x="757.351" y="112.321" width="22.1781" height="25.7895" fill="#0C4040"/>
<rect x="789.966" y="112.32" width="22.1781" height="25.7895" fill="#0C4040"/>
<rect x="822.58" y="112.32" width="22.1781" height="25.7895" fill="#0C4040"/>
<rect x="757.351" y="147.08" width="22.1781" height="25.7895" fill="#0C4040"/>
<rect x="789.966" y="147.08" width="22.1781" height="25.7895" fill="#0C4040"/>
<rect x="822.58" y="147.08" width="22.1781" height="25.7895" fill="#0C4040"/>
<path d="M859.109 97.7437L868.893 77V322H859.109V97.7437Z" fill="black"/>
<path d="M765.446 77.001H868.893L859.109 97.7447H743L765.446 77.001Z" fill="#535353"/>
<g filter="url(#filter5_d)">
<path d="M1997 167.296L1787.1 237.345C1759.29 246.626 1729.87 250.094 1700.66 247.532L1523.45 231.99C1511.21 230.916 1499.08 228.79 1487.21 225.634L1267.61 167.296L1148.07 145.258C1128.93 141.731 1109.27 142.23 1090.34 146.726L826.807 209.304L594.462 247.567C578.934 250.124 563.164 250.902 547.459 249.886L284.521 232.871C259.028 231.221 234.036 225.02 210.728 214.561L0 120V351H1997V167.296Z" fill="#1F1F25"/>
</g>
</g>
<defs>
<filter id="filter0_d" x="41.3974" y="21.7761" width="1955.33" height="199.195" filterUnits="userSpaceOnUse" color-interpolation-filters="sRGB">
<feFlood flood-opacity="0" result="BackgroundImageFix"/>
<feColorMatrix in="SourceAlpha" type="matrix" values="0 0 0 0 0 0 0 0 0 0 0 0 0 0 0 0 0 0 127 0"/>
<feOffset dy="-44.0066"/>
<feGaussianBlur stdDeviation="8.80131"/>
<feColorMatrix type="matrix" values="0 0 0 0 0 0 0 0 0 0 0 0 0 0 0 0 0 0 0.6 0"/>
<feBlend mode="normal" in2="BackgroundImageFix" result="effect1_dropShadow"/>
<feBlend mode="normal" in="SourceGraphic" in2="effect1_dropShadow" result="shape"/>
</filter>
<filter id="filter1_d" x="0.397373" y="0.437435" width="1996.02" height="171.927" filterUnits="userSpaceOnUse" color-interpolation-filters="sRGB">
<feFlood flood-opacity="0" result="BackgroundImageFix"/>
<feColorMatrix in="SourceAlpha" type="matrix" values="0 0 0 0 0 0 0 0 0 0 0 0 0 0 0 0 0 0 127 0"/>
<feOffset dy="-44.0066"/>
<feGaussianBlur stdDeviation="8.80131"/>
<feColorMatrix type="matrix" values="0 0 0 0 0 0 0 0 0 0 0 0 0 0 0 0 0 0 0.6 0"/>
<feBlend mode="normal" in2="BackgroundImageFix" result="effect1_dropShadow"/>
<feBlend mode="normal" in="SourceGraphic" in2="effect1_dropShadow" result="shape"/>
</filter>
<filter id="filter2_d" x="1450.56" y="38.5298" width="349.519" height="257.256" filterUnits="userSpaceOnUse" color-interpolation-filters="sRGB">
<feFlood flood-opacity="0" result="BackgroundImageFix"/>
<feColorMatrix in="SourceAlpha" type="matrix" values="0 0 0 0 0 0 0 0 0 0 0 0 0 0 0 0 0 0 127 0"/>
<feOffset dy="4"/>
<feGaussianBlur stdDeviation="20"/>
<feColorMatrix type="matrix" values="0 0 0 0 1 0 0 0 0 1 0 0 0 0 1 0 0 0 0.5 0"/>
<feBlend mode="normal" in2="BackgroundImageFix" result="effect1_dropShadow"/>
<feBlend mode="normal" in="SourceGraphic" in2="effect1_dropShadow" result="shape"/>
</filter>
<filter id="filter3_d" x="1579" y="131.608" width="131.073" height="97.9889" filterUnits="userSpaceOnUse" color-interpolation-filters="sRGB">
<feFlood flood-opacity="0" result="BackgroundImageFix"/>
<feColorMatrix in="SourceAlpha" type="matrix" values="0 0 0 0 0 0 0 0 0 0 0 0 0 0 0 0 0 0 127 0"/>
<feOffset dy="4"/>
<feGaussianBlur stdDeviation="2"/>
<feColorMatrix type="matrix" values="0 0 0 0 1 0 0 0 0 1 0 0 0 0 1 0 0 0 0.7 0"/>
<feBlend mode="normal" in2="BackgroundImageFix" result="effect1_dropShadow"/>
<feBlend mode="normal" in="SourceGraphic" in2="effect1_dropShadow" result="shape"/>
</filter>
<filter id="filter4_d" x="1703.56" y="79.9211" width="74.8112" height="35.2053" filterUnits="userSpaceOnUse" color-interpolation-filters="sRGB">
<feFlood flood-opacity="0" result="BackgroundImageFix"/>
<feColorMatrix in="SourceAlpha" type="matrix" values="0 0 0 0 0 0 0 0 0 0 0 0 0 0 0 0 0 0 127 0"/>
<feOffset dy="3.52053"/>
<feGaussianBlur stdDeviation="1.76026"/>
<feColorMatrix type="matrix" values="0 0 0 0 0.808398 0 0 0 0 0.174785 0 0 0 0 0.388212 0 0 0 1 0"/>
<feBlend mode="normal" in2="BackgroundImageFix" result="effect1_dropShadow"/>
<feBlend mode="normal" in="SourceGraphic" in2="effect1_dropShadow" result="shape"/>
</filter>
<filter id="filter5_d" x="-17.6026" y="58.3908" width="2032.21" height="292.609" filterUnits="userSpaceOnUse" color-interpolation-filters="sRGB">
<feFlood flood-opacity="0" result="BackgroundImageFix"/>
<feColorMatrix in="SourceAlpha" type="matrix" values="0 0 0 0 0 0 0 0 0 0 0 0 0 0 0 0 0 0 127 0"/>
<feOffset dy="-44.0066"/>
<feGaussianBlur stdDeviation="8.80131"/>
<feColorMatrix type="matrix" values="0 0 0 0 0 0 0 0 0 0 0 0 0 0 0 0 0 0 0.6 0"/>
<feBlend mode="normal" in2="BackgroundImageFix" result="effect1_dropShadow"/>
<feBlend mode="normal" in="SourceGraphic" in2="effect1_dropShadow" result="shape"/>
</filter>
<clipPath id="clip0">
<rect width="1997" height="351" fill="white"/>
</clipPath>
</defs>
</svg>
