<svg width="1997" height="351" viewBox="0 0 1997 351" fill="none" xmlns="http://www.w3.org/2000/svg">
<g id="BlogHeader" clip-path="url(#clip0)">
<rect id="background" width="1997" height="351" fill="#1F1F25"/>
<g id="Stars">
<path id="Star" d="M1275.23 17L1276.2 19.7639H1279.32L1276.79 21.4721L1277.76 24.2361L1275.23 22.5279L1272.7 24.2361L1273.67 21.4721L1271.14 19.7639H1274.27L1275.23 17Z" fill="#3B8D99"/>
<path id="Star_2" d="M1293.51 29L1294.48 31.7639H1297.6L1295.07 33.4721L1296.04 36.2361L1293.51 34.5279L1290.98 36.2361L1291.95 33.4721L1289.42 31.7639H1292.54L1293.51 29Z" fill="#3B8D99"/>
<path id="Star_3" d="M1337.59 15L1338.56 17.7639H1341.68L1339.16 19.4721L1340.12 22.2361L1337.59 20.5279L1335.07 22.2361L1336.03 19.4721L1333.5 17.7639H1336.63L1337.59 15Z" fill="#239494"/>
<path id="Star_4" d="M1223.62 38L1224.59 40.7639H1227.71L1225.18 42.4721L1226.15 45.2361L1223.62 43.5279L1221.09 45.2361L1222.06 42.4721L1219.53 40.7639H1222.66L1223.62 38Z" fill="#265B63"/>
<path id="Star_5" d="M1256.95 56L1257.92 58.7639H1261.04L1258.52 60.4721L1259.48 63.2361L1256.95 61.5279L1254.42 63.2361L1255.39 60.4721L1252.86 58.7639H1255.99L1256.95 56Z" fill="#265B63"/>
<path id="Star_6" d="M1375.23 22L1376.19 24.7639H1379.32L1376.79 26.4721L1377.75 29.2361L1375.23 27.5279L1372.7 29.2361L1373.66 26.4721L1371.14 24.7639H1374.26L1375.23 22Z" fill="#265B63"/>
<path id="Star_7" d="M1349.42 46L1350.39 48.7639H1353.51L1350.98 50.4721L1351.95 53.2361L1349.42 51.5279L1346.89 53.2361L1347.86 50.4721L1345.33 48.7639H1348.46L1349.42 46Z" fill="#3B8D99"/>
<path id="Star_8" d="M1275.23 17L1276.2 19.7639H1279.32L1276.79 21.4721L1277.76 24.2361L1275.23 22.5279L1272.7 24.2361L1273.67 21.4721L1271.14 19.7639H1274.27L1275.23 17Z" fill="#3B8D99"/>
<path id="Star_9" d="M1293.51 29L1294.48 31.7639H1297.6L1295.07 33.4721L1296.04 36.2361L1293.51 34.5279L1290.98 36.2361L1291.95 33.4721L1289.42 31.7639H1292.54L1293.51 29Z" fill="#3B8D99"/>
<path id="Star_10" d="M1337.59 15L1338.56 17.7639H1341.68L1339.16 19.4721L1340.12 22.2361L1337.59 20.5279L1335.07 22.2361L1336.03 19.4721L1333.5 17.7639H1336.63L1337.59 15Z" fill="#239494"/>
<path id="Star_11" d="M1223.62 38L1224.59 40.7639H1227.71L1225.18 42.4721L1226.15 45.2361L1223.62 43.5279L1221.09 45.2361L1222.06 42.4721L1219.53 40.7639H1222.66L1223.62 38Z" fill="#670852"/>
<path id="Star_12" d="M1256.95 56L1257.92 58.7639H1261.04L1258.52 60.4721L1259.48 63.2361L1256.95 61.5279L1254.42 63.2361L1255.39 60.4721L1252.86 58.7639H1255.99L1256.95 56Z" fill="#265B63"/>
<path id="Star_13" d="M1349.42 46L1350.39 48.7639H1353.51L1350.98 50.4721L1351.95 53.2361L1349.42 51.5279L1346.89 53.2361L1347.86 50.4721L1345.33 48.7639H1348.46L1349.42 46Z" fill="#3B8D99"/>
<path id="Star_14" d="M1536.51 83L1537.47 85.7639H1540.6L1538.07 87.4721L1539.04 90.2361L1536.51 88.5279L1533.98 90.2361L1534.95 87.4721L1532.42 85.7639H1535.54L1536.51 83Z" fill="#3B8D99"/>
<path id="Star_15" d="M1554.79 95L1555.75 97.7639H1558.88L1556.35 99.4721L1557.32 102.236L1554.79 100.528L1552.26 102.236L1553.22 99.4721L1550.7 97.7639H1553.82L1554.79 95Z" fill="#582838"/>
<path id="Star_16" d="M1598.87 81L1599.84 83.7639H1602.96L1600.43 85.4721L1601.4 88.2361L1598.87 86.5279L1596.34 88.2361L1597.31 85.4721L1594.78 83.7639H1597.91L1598.87 81Z" fill="#670852"/>
<path id="Star_17" d="M1484.9 104L1485.86 106.764H1488.99L1486.46 108.472L1487.43 111.236L1484.9 109.528L1482.37 111.236L1483.34 108.472L1480.81 106.764H1483.93L1484.9 104Z" fill="#265B63"/>
<path id="Star_18" d="M1610.7 112L1611.66 114.764H1614.79L1612.26 116.472L1613.23 119.236L1610.7 117.528L1608.17 119.236L1609.14 116.472L1606.61 114.764H1609.73L1610.7 112Z" fill="#3B8D99"/>
<path id="Star_19" d="M1433.29 28L1434.25 30.7639H1437.38L1434.85 32.4721L1435.82 35.2361L1433.29 33.5279L1430.76 35.2361L1431.73 32.4721L1429.2 30.7639H1432.32L1433.29 28Z" fill="#AA4B6B"/>
<path id="Star_20" d="M1293.51 71L1294.48 73.7639H1297.6L1295.07 75.4721L1296.04 78.2361L1293.51 76.5279L1290.98 78.2361L1291.95 75.4721L1289.42 73.7639H1292.54L1293.51 71Z" fill="#582838"/>
<path id="Star_21" d="M1279.06 107.944L1276.87 105.876L1274.07 107.178L1275.51 104.597L1273.32 102.529L1276.4 103.002L1277.84 100.422L1278.3 103.295L1281.39 103.769L1278.59 105.071L1279.06 107.944Z" fill="#582838"/>
<path id="Star_22" d="M1201.21 155.42L1199.02 153.352L1196.23 154.654L1197.66 152.073L1195.47 150.005L1198.55 150.478L1199.99 147.898L1200.46 150.771L1203.54 151.244L1200.75 152.547L1201.21 155.42Z" fill="#3B8D99"/>
<path id="Star_23" d="M1239.15 109.77L1236.96 107.701L1234.17 109.003L1235.6 106.423L1233.41 104.354L1236.49 104.828L1237.93 102.247L1238.4 105.121L1241.48 105.594L1238.69 106.896L1239.15 109.77Z" fill="#265B63"/>
<path id="Star_24" d="M985.291 151.145L983.096 149.077L980.303 150.379L981.74 147.798L979.545 145.73L982.628 146.203L984.065 143.623L984.533 146.496L987.616 146.97L984.823 148.272L985.291 151.145Z" fill="#265B63"/>
<path id="Star_25" d="M868.973 196.42L866.778 194.352L863.985 195.654L865.422 193.073L863.227 191.005L866.31 191.478L867.747 188.898L868.215 191.771L871.298 192.244L868.505 193.547L868.973 196.42Z" fill="#3B8D99"/>
<path id="Star_26" d="M830.996 64.4274L828.801 62.3589L826.008 63.6611L827.445 61.0804L825.25 59.0119L828.333 59.4855L829.77 56.9049L830.238 59.7782L833.321 60.2518L830.527 61.554L830.996 64.4274Z" fill="#3B8D99"/>
<path id="Star_27" d="M808.873 61.317L806.678 59.2485L803.885 60.5507L805.322 57.9701L803.127 55.9016L806.21 56.3752L807.647 53.7945L808.115 56.6679L811.198 57.1415L808.405 58.4437L808.873 61.317Z" fill="#3B8D99"/>
<path id="Star_28" d="M776.208 92.2045L774.013 90.136L771.22 91.4382L772.657 88.8575L770.462 86.789L773.545 87.2626L774.982 84.682L775.45 87.5553L778.533 88.0289L775.74 89.3311L776.208 92.2045Z" fill="#239494"/>
<path id="Star_29" d="M867.017 24.1451L864.823 22.0766L862.029 23.3789L863.466 20.7982L861.271 18.7297L864.354 19.2033L865.791 16.6227L866.259 19.496L869.342 19.9696L866.549 21.2718L867.017 24.1451Z" fill="#265B63"/>
<path id="Star_30" d="M828.547 21.9442L826.352 19.8757L823.558 21.1779L824.995 18.5973L822.8 16.5288L825.883 17.0024L827.32 14.4217L827.789 17.2951L830.872 17.7687L828.078 19.0709L828.547 21.9442Z" fill="#265B63"/>
<path id="Star_31" d="M750.7 69.42L748.505 67.3515L745.711 68.6538L747.148 66.0731L744.953 64.0046L748.036 64.4782L749.473 61.8976L749.942 64.7709L753.025 65.2445L750.231 66.5467L750.7 69.42Z" fill="#AA4B6B"/>
<path id="Star_32" d="M788.638 23.7697L786.444 21.7011L783.65 23.0034L785.087 20.4227L782.892 18.3542L785.975 18.8278L787.412 16.2472L787.881 19.1205L790.964 19.5941L788.17 20.8963L788.638 23.7697Z" fill="#265B63"/>
<path id="Star_33" d="M902.891 59.2351L905.708 60.4935L907.865 58.391L907.448 61.2712L910.265 62.5296L907.191 63.0513L906.775 65.9316L905.291 63.3737L902.217 63.8954L904.374 61.7929L902.891 59.2351Z" fill="#582838"/>
<path id="Star_34" d="M924.845 55.2207L927.661 56.4791L929.818 54.3766L929.402 57.2568L932.219 58.5152L929.145 59.0369L928.728 61.9171L927.245 59.3593L924.171 59.881L926.328 57.7785L924.845 55.2207Z" fill="#3B8D99"/>
<path id="Star_35" d="M944.388 15.8938L947.205 17.1522L949.362 15.0497L948.945 17.9299L951.762 19.1883L948.688 19.71L948.272 22.5902L946.788 20.0324L943.714 20.5541L945.871 18.4516L944.388 15.8938Z" fill="#239494"/>
<path id="Star_36" d="M883.597 108.459L886.413 109.717L888.57 107.615L888.154 110.495L890.971 111.754L887.897 112.275L887.48 115.155L885.997 112.598L882.923 113.119L885.08 111.017L883.597 108.459Z" fill="#265B63"/>
<path id="Star_37" d="M920.609 98.4582L923.426 99.7166L925.583 97.6141L925.167 100.494L927.983 101.753L924.909 102.274L924.493 105.155L923.009 102.597L919.935 103.119L922.093 101.016L920.609 98.4582Z" fill="#265B63"/>
<path id="Star_38" d="M976.667 29.3366L979.484 30.595L981.641 28.4925L981.225 31.3728L984.041 32.6312L980.967 33.1529L980.551 36.0331L979.068 33.4753L975.994 33.997L978.151 31.8945L976.667 29.3366Z" fill="#AA4B6B"/>
<path id="Star_39" d="M957.515 84.2158L960.332 85.4742L962.489 83.3717L962.072 86.2519L964.889 87.5103L961.815 88.032L961.399 90.9123L959.915 88.3544L956.841 88.8761L958.998 86.7736L957.515 84.2158Z" fill="#265B63"/>
<path id="Star_40" d="M1104.1 63.4274L1101.91 61.3589L1099.11 62.6611L1100.55 60.0804L1098.35 58.0119L1101.44 58.4855L1102.87 55.9049L1103.34 58.7782L1106.43 59.2518L1103.63 60.554L1104.1 63.4274Z" fill="#3B8D99"/>
<path id="Star_41" d="M1081.98 60.317L1079.78 58.2485L1076.99 59.5507L1078.43 56.9701L1076.23 54.9016L1079.31 55.3752L1080.75 52.7945L1081.22 55.6679L1084.3 56.1415L1081.51 57.4437L1081.98 60.317Z" fill="#3B8D99"/>
<path id="Star_42" d="M1049.31 91.2045L1047.12 89.136L1044.32 90.4382L1045.76 87.8575L1043.57 85.789L1046.65 86.2626L1048.09 83.682L1048.56 86.5553L1051.64 87.0289L1048.84 88.3311L1049.31 91.2045Z" fill="#239494"/>
<path id="Star_43" d="M1140.12 23.1451L1137.93 21.0766L1135.13 22.3789L1136.57 19.7982L1134.38 17.7297L1137.46 18.2033L1138.9 15.6227L1139.36 18.496L1142.45 18.9696L1139.65 20.2718L1140.12 23.1451Z" fill="#265B63"/>
<path id="Star_44" d="M1101.65 20.9442L1099.46 18.8757L1096.66 20.1779L1098.1 17.5973L1095.91 15.5288L1098.99 16.0024L1100.43 13.4217L1100.89 16.2951L1103.98 16.7687L1101.18 18.0709L1101.65 20.9442Z" fill="#265B63"/>
<path id="Star_45" d="M1023.8 68.42L1021.61 66.3515L1018.82 67.6538L1020.25 65.0731L1018.06 63.0046L1021.14 63.4782L1022.58 60.8976L1023.05 63.7709L1026.13 64.2445L1023.34 65.5467L1023.8 68.42Z" fill="#3B8D99"/>
<path id="Star_46" d="M1061.74 22.7697L1059.55 20.7011L1056.75 22.0034L1058.19 19.4227L1056 17.3542L1059.08 17.8278L1060.52 15.2472L1060.99 18.1205L1064.07 18.5941L1061.27 19.8963L1061.74 22.7697Z" fill="#265B63"/>
</g>
<g id="Stars_2">
<path id="Star_47" d="M1275.23 17L1276.2 19.7639H1279.32L1276.79 21.4721L1277.76 24.2361L1275.23 22.5279L1272.7 24.2361L1273.67 21.4721L1271.14 19.7639H1274.27L1275.23 17Z" fill="#3B8D99"/>
<path id="Star_48" d="M1293.51 29L1294.48 31.7639H1297.6L1295.07 33.4721L1296.04 36.2361L1293.51 34.5279L1290.98 36.2361L1291.95 33.4721L1289.42 31.7639H1292.54L1293.51 29Z" fill="#3B8D99"/>
<path id="Star_49" d="M1337.59 15L1338.56 17.7639H1341.68L1339.16 19.4721L1340.12 22.2361L1337.59 20.5279L1335.07 22.2361L1336.03 19.4721L1333.5 17.7639H1336.63L1337.59 15Z" fill="#239494"/>
<path id="Star_50" d="M1223.62 38L1224.59 40.7639H1227.71L1225.18 42.4721L1226.15 45.2361L1223.62 43.5279L1221.09 45.2361L1222.06 42.4721L1219.53 40.7639H1222.66L1223.62 38Z" fill="#265B63"/>
<path id="Star_51" d="M1256.95 56L1257.92 58.7639H1261.04L1258.52 60.4721L1259.48 63.2361L1256.95 61.5279L1254.42 63.2361L1255.39 60.4721L1252.86 58.7639H1255.99L1256.95 56Z" fill="#265B63"/>
<path id="Star_52" d="M1375.23 22L1376.19 24.7639H1379.32L1376.79 26.4721L1377.75 29.2361L1375.23 27.5279L1372.7 29.2361L1373.66 26.4721L1371.14 24.7639H1374.26L1375.23 22Z" fill="#265B63"/>
<path id="Star_53" d="M1349.42 46L1350.39 48.7639H1353.51L1350.98 50.4721L1351.95 53.2361L1349.42 51.5279L1346.89 53.2361L1347.86 50.4721L1345.33 48.7639H1348.46L1349.42 46Z" fill="#3B8D99"/>
<path id="Star_54" d="M1275.23 17L1276.2 19.7639H1279.32L1276.79 21.4721L1277.76 24.2361L1275.23 22.5279L1272.7 24.2361L1273.67 21.4721L1271.14 19.7639H1274.27L1275.23 17Z" fill="#3B8D99"/>
<path id="Star_55" d="M1293.51 29L1294.48 31.7639H1297.6L1295.07 33.4721L1296.04 36.2361L1293.51 34.5279L1290.98 36.2361L1291.95 33.4721L1289.42 31.7639H1292.54L1293.51 29Z" fill="#3B8D99"/>
<path id="Star_56" d="M1337.59 15L1338.56 17.7639H1341.68L1339.16 19.4721L1340.12 22.2361L1337.59 20.5279L1335.07 22.2361L1336.03 19.4721L1333.5 17.7639H1336.63L1337.59 15Z" fill="#239494"/>
<path id="Star_57" d="M1223.62 38L1224.59 40.7639H1227.71L1225.18 42.4721L1226.15 45.2361L1223.62 43.5279L1221.09 45.2361L1222.06 42.4721L1219.53 40.7639H1222.66L1223.62 38Z" fill="#670852"/>
<path id="Star_58" d="M1256.95 56L1257.92 58.7639H1261.04L1258.52 60.4721L1259.48 63.2361L1256.95 61.5279L1254.42 63.2361L1255.39 60.4721L1252.86 58.7639H1255.99L1256.95 56Z" fill="#265B63"/>
<path id="Star_59" d="M1349.42 46L1350.39 48.7639H1353.51L1350.98 50.4721L1351.95 53.2361L1349.42 51.5279L1346.89 53.2361L1347.86 50.4721L1345.33 48.7639H1348.46L1349.42 46Z" fill="#3B8D99"/>
<path id="Star_60" d="M1536.51 83L1537.47 85.7639H1540.6L1538.07 87.4721L1539.04 90.2361L1536.51 88.5279L1533.98 90.2361L1534.95 87.4721L1532.42 85.7639H1535.54L1536.51 83Z" fill="#3B8D99"/>
<path id="Star_61" d="M1554.79 95L1555.75 97.7639H1558.88L1556.35 99.4721L1557.32 102.236L1554.79 100.528L1552.26 102.236L1553.22 99.4721L1550.7 97.7639H1553.82L1554.79 95Z" fill="#582838"/>
<path id="Star_62" d="M1598.87 81L1599.84 83.7639H1602.96L1600.43 85.4721L1601.4 88.2361L1598.87 86.5279L1596.34 88.2361L1597.31 85.4721L1594.78 83.7639H1597.91L1598.87 81Z" fill="#670852"/>
<path id="Star_63" d="M1484.9 104L1485.86 106.764H1488.99L1486.46 108.472L1487.43 111.236L1484.9 109.528L1482.37 111.236L1483.34 108.472L1480.81 106.764H1483.93L1484.9 104Z" fill="#265B63"/>
<path id="Star_64" d="M1610.7 112L1611.66 114.764H1614.79L1612.26 116.472L1613.23 119.236L1610.7 117.528L1608.17 119.236L1609.14 116.472L1606.61 114.764H1609.73L1610.7 112Z" fill="#3B8D99"/>
<path id="Star_65" d="M1433.29 28L1434.25 30.7639H1437.38L1434.85 32.4721L1435.82 35.2361L1433.29 33.5279L1430.76 35.2361L1431.73 32.4721L1429.2 30.7639H1432.32L1433.29 28Z" fill="#AA4B6B"/>
<path id="Star_66" d="M1293.51 71L1294.48 73.7639H1297.6L1295.07 75.4721L1296.04 78.2361L1293.51 76.5279L1290.98 78.2361L1291.95 75.4721L1289.42 73.7639H1292.54L1293.51 71Z" fill="#582838"/>
<path id="Star_67" d="M1279.06 107.944L1276.87 105.876L1274.07 107.178L1275.51 104.597L1273.32 102.529L1276.4 103.002L1277.84 100.422L1278.3 103.295L1281.39 103.769L1278.59 105.071L1279.06 107.944Z" fill="#582838"/>
<path id="Star_68" d="M1201.21 155.42L1199.02 153.352L1196.23 154.654L1197.66 152.073L1195.47 150.005L1198.55 150.478L1199.99 147.898L1200.46 150.771L1203.54 151.244L1200.75 152.547L1201.21 155.42Z" fill="#3B8D99"/>
<path id="Star_69" d="M1239.15 109.77L1236.96 107.701L1234.17 109.003L1235.6 106.423L1233.41 104.354L1236.49 104.828L1237.93 102.247L1238.4 105.121L1241.48 105.594L1238.69 106.896L1239.15 109.77Z" fill="#265B63"/>
<path id="Star_70" d="M985.291 151.145L983.096 149.077L980.303 150.379L981.74 147.798L979.545 145.73L982.628 146.203L984.065 143.623L984.533 146.496L987.616 146.97L984.823 148.272L985.291 151.145Z" fill="#265B63"/>
<path id="Star_71" d="M868.973 196.42L866.778 194.352L863.985 195.654L865.422 193.073L863.227 191.005L866.31 191.478L867.747 188.898L868.215 191.771L871.298 192.244L868.505 193.547L868.973 196.42Z" fill="#3B8D99"/>
<path id="Star_72" d="M830.996 64.4274L828.801 62.3589L826.008 63.6611L827.445 61.0804L825.25 59.0119L828.333 59.4855L829.77 56.9049L830.238 59.7782L833.321 60.2518L830.527 61.554L830.996 64.4274Z" fill="#3B8D99"/>
<path id="Star_73" d="M808.873 61.317L806.678 59.2485L803.885 60.5507L805.322 57.9701L803.127 55.9016L806.21 56.3752L807.647 53.7945L808.115 56.6679L811.198 57.1415L808.405 58.4437L808.873 61.317Z" fill="#3B8D99"/>
<path id="Star_74" d="M776.208 92.2045L774.013 90.136L771.22 91.4382L772.657 88.8575L770.462 86.789L773.545 87.2626L774.982 84.682L775.45 87.5553L778.533 88.0289L775.74 89.3311L776.208 92.2045Z" fill="#239494"/>
<path id="Star_75" d="M867.017 24.1451L864.823 22.0766L862.029 23.3789L863.466 20.7982L861.271 18.7297L864.354 19.2033L865.791 16.6227L866.259 19.496L869.342 19.9696L866.549 21.2718L867.017 24.1451Z" fill="#265B63"/>
<path id="Star_76" d="M828.547 21.9442L826.352 19.8757L823.558 21.1779L824.995 18.5973L822.8 16.5288L825.883 17.0024L827.32 14.4217L827.789 17.2951L830.872 17.7687L828.078 19.0709L828.547 21.9442Z" fill="#265B63"/>
<path id="Star_77" d="M750.699 69.42L748.504 67.3515L745.711 68.6538L747.148 66.0731L744.953 64.0046L748.036 64.4782L749.473 61.8976L749.941 64.7709L753.024 65.2445L750.231 66.5467L750.699 69.42Z" fill="#AA4B6B"/>
<path id="Star_78" d="M788.638 23.7697L786.444 21.7011L783.65 23.0034L785.087 20.4227L782.892 18.3542L785.975 18.8278L787.412 16.2472L787.881 19.1205L790.964 19.5941L788.17 20.8963L788.638 23.7697Z" fill="#265B63"/>
<path id="Star_79" d="M902.891 59.2351L905.708 60.4935L907.865 58.391L907.448 61.2712L910.265 62.5296L907.191 63.0513L906.775 65.9316L905.291 63.3737L902.217 63.8954L904.374 61.7929L902.891 59.2351Z" fill="#582838"/>
<path id="Star_80" d="M924.845 55.2207L927.661 56.4791L929.818 54.3766L929.402 57.2568L932.219 58.5152L929.145 59.0369L928.728 61.9171L927.245 59.3593L924.171 59.881L926.328 57.7785L924.845 55.2207Z" fill="#3B8D99"/>
<path id="Star_81" d="M944.388 15.8938L947.205 17.1522L949.362 15.0497L948.945 17.9299L951.762 19.1883L948.688 19.71L948.272 22.5902L946.788 20.0324L943.714 20.5541L945.871 18.4516L944.388 15.8938Z" fill="#239494"/>
<path id="Star_82" d="M883.597 108.459L886.413 109.717L888.57 107.615L888.154 110.495L890.971 111.754L887.897 112.275L887.48 115.155L885.997 112.598L882.923 113.119L885.08 111.017L883.597 108.459Z" fill="#265B63"/>
<path id="Star_83" d="M920.609 98.4582L923.426 99.7166L925.583 97.6141L925.167 100.494L927.983 101.753L924.909 102.274L924.493 105.155L923.009 102.597L919.935 103.119L922.093 101.016L920.609 98.4582Z" fill="#265B63"/>
<path id="Star_84" d="M976.667 29.3366L979.484 30.595L981.641 28.4925L981.225 31.3728L984.041 32.6312L980.967 33.1529L980.551 36.0331L979.068 33.4753L975.994 33.997L978.151 31.8945L976.667 29.3366Z" fill="#AA4B6B"/>
<path id="Star_85" d="M957.515 84.2158L960.332 85.4742L962.489 83.3717L962.072 86.2519L964.889 87.5103L961.815 88.032L961.399 90.9123L959.915 88.3544L956.841 88.8761L958.998 86.7736L957.515 84.2158Z" fill="#265B63"/>
<path id="Star_86" d="M1104.1 63.4274L1101.91 61.3589L1099.11 62.6611L1100.55 60.0804L1098.35 58.0119L1101.44 58.4855L1102.87 55.9049L1103.34 58.7782L1106.43 59.2518L1103.63 60.554L1104.1 63.4274Z" fill="#3B8D99"/>
<path id="Star_87" d="M1081.98 60.317L1079.78 58.2485L1076.99 59.5507L1078.43 56.9701L1076.23 54.9016L1079.31 55.3752L1080.75 52.7945L1081.22 55.6679L1084.3 56.1415L1081.51 57.4437L1081.98 60.317Z" fill="#3B8D99"/>
<path id="Star_88" d="M1049.31 91.2045L1047.12 89.136L1044.32 90.4382L1045.76 87.8575L1043.57 85.789L1046.65 86.2626L1048.09 83.682L1048.56 86.5553L1051.64 87.0289L1048.84 88.3311L1049.31 91.2045Z" fill="#239494"/>
<path id="Star_89" d="M1140.12 23.1451L1137.93 21.0766L1135.13 22.3789L1136.57 19.7982L1134.38 17.7297L1137.46 18.2033L1138.9 15.6227L1139.36 18.496L1142.45 18.9696L1139.65 20.2718L1140.12 23.1451Z" fill="#265B63"/>
<path id="Star_90" d="M1101.65 20.9442L1099.46 18.8757L1096.66 20.1779L1098.1 17.5973L1095.91 15.5288L1098.99 16.0024L1100.43 13.4217L1100.89 16.2951L1103.98 16.7687L1101.18 18.0709L1101.65 20.9442Z" fill="#265B63"/>
<path id="Star_91" d="M1023.8 68.42L1021.61 66.3515L1018.82 67.6538L1020.25 65.0731L1018.06 63.0046L1021.14 63.4782L1022.58 60.8976L1023.05 63.7709L1026.13 64.2445L1023.34 65.5467L1023.8 68.42Z" fill="#3B8D99"/>
<path id="Star_92" d="M1061.74 22.7697L1059.55 20.7011L1056.75 22.0034L1058.19 19.4227L1056 17.3542L1059.08 17.8278L1060.52 15.2472L1060.99 18.1205L1064.07 18.5941L1061.27 19.8963L1061.74 22.7697Z" fill="#265B63"/>
<path id="Star_93" d="M1912.2 42L1913.17 44.7639H1916.29L1913.76 46.4721L1914.73 49.2361L1912.2 47.5279L1909.67 49.2361L1910.64 46.4721L1908.11 44.7639H1911.24L1912.2 42Z" fill="#670852"/>
<path id="Star_94" d="M1982.09 75L1983.06 77.7639H1986.18L1983.65 79.4721L1984.62 82.2361L1982.09 80.5279L1979.56 82.2361L1980.53 79.4721L1978 77.7639H1981.13L1982.09 75Z" fill="#582838"/>
<path id="Star_95" d="M1632.97 19.8938L1635.79 21.1522L1637.94 19.0497L1637.53 21.9299L1640.34 23.1883L1637.27 23.71L1636.85 26.5902L1635.37 24.0324L1632.3 24.5541L1634.45 22.4516L1632.97 19.8938Z" fill="#239494"/>
<path id="Star_96" d="M1665.25 33.3366L1668.07 34.595L1670.22 32.4925L1669.81 35.3728L1672.62 36.6312L1669.55 37.1529L1669.13 40.0331L1667.65 37.4753L1664.57 37.997L1666.73 35.8945L1665.25 33.3366Z" fill="#AA4B6B"/>
<path id="Star_97" d="M1792.68 67.4274L1790.49 65.3589L1787.69 66.6611L1789.13 64.0804L1786.94 62.0119L1790.02 62.4855L1791.46 59.9049L1791.92 62.7782L1795.01 63.2518L1792.21 64.554L1792.68 67.4274Z" fill="#3B8D99"/>
<path id="Star_98" d="M1770.56 64.317L1768.36 62.2485L1765.57 63.5507L1767.01 60.9701L1764.81 58.9016L1767.9 59.3752L1769.33 56.7945L1769.8 59.6679L1772.88 60.1415L1770.09 61.4437L1770.56 64.317Z" fill="#3B8D99"/>
<path id="Star_99" d="M1828.7 27.1451L1826.51 25.0766L1823.71 26.3789L1825.15 23.7982L1822.96 21.7297L1826.04 22.2033L1827.48 19.6227L1827.95 22.496L1831.03 22.9696L1828.23 24.2718L1828.7 27.1451Z" fill="#265B63"/>
<path id="Star_100" d="M1790.23 24.9442L1788.04 22.8757L1785.24 24.1779L1786.68 21.5973L1784.49 19.5288L1787.57 20.0024L1789.01 17.4217L1789.47 20.2951L1792.56 20.7687L1789.76 22.0709L1790.23 24.9442Z" fill="#265B63"/>
<path id="Star_101" d="M1712.39 72.42L1710.19 70.3515L1707.4 71.6538L1708.83 69.0731L1706.64 67.0046L1709.72 67.4782L1711.16 64.8976L1711.63 67.7709L1714.71 68.2445L1711.92 69.5467L1712.39 72.42Z" fill="#3B8D99"/>
<path id="Star_102" d="M1750.32 26.7697L1748.13 24.7011L1745.34 26.0034L1746.77 23.4227L1744.58 21.3542L1747.66 21.8278L1749.1 19.2472L1749.57 22.1205L1752.65 22.5941L1749.86 23.8963L1750.32 26.7697Z" fill="#265B63"/>
</g>
<g id="Stars_3">
<path id="Star_103" d="M536.232 10L537.197 12.7639H540.322L537.794 14.4721L538.76 17.2361L536.232 15.5279L533.704 17.2361L534.669 14.4721L532.141 12.7639H535.266L536.232 10Z" fill="#3B8D99"/>
<path id="Star_104" d="M554.51 22L555.476 24.7639H558.601L556.073 26.4721L557.038 29.2361L554.51 27.5279L551.982 29.2361L552.948 26.4721L550.42 24.7639H553.545L554.51 22Z" fill="#3B8D99"/>
<path id="Star_105" d="M598.594 8L599.559 10.7639H602.684L600.156 12.4721L601.122 15.2361L598.594 13.5279L596.066 15.2361L597.031 12.4721L594.503 10.7639H597.628L598.594 8Z" fill="#239494"/>
<path id="Star_106" d="M484.621 31L485.587 33.7639H488.712L486.184 35.4721L487.149 38.2361L484.621 36.5279L482.093 38.2361L483.059 35.4721L480.531 33.7639H483.656L484.621 31Z" fill="#265B63"/>
<path id="Star_107" d="M517.953 49L518.918 51.7639H522.043L519.515 53.4721L520.481 56.2361L517.953 54.5279L515.425 56.2361L516.39 53.4721L513.862 51.7639H516.987L517.953 49Z" fill="#265B63"/>
<path id="Star_108" d="M636.227 15L637.192 17.7639H640.317L637.789 19.4721L638.755 22.2361L636.227 20.5279L633.699 22.2361L634.664 19.4721L632.136 17.7639H635.261L636.227 15Z" fill="#265B63"/>
<path id="Star_109" d="M610.421 39L611.387 41.7639H614.512L611.984 43.4721L612.949 46.2361L610.421 44.5279L607.893 46.2361L608.859 43.4721L606.331 41.7639H609.456L610.421 39Z" fill="#3B8D99"/>
<path id="Star_110" d="M536.232 10L537.197 12.7639H540.322L537.794 14.4721L538.76 17.2361L536.232 15.5279L533.704 17.2361L534.669 14.4721L532.141 12.7639H535.266L536.232 10Z" fill="#3B8D99"/>
<path id="Star_111" d="M554.51 22L555.476 24.7639H558.601L556.073 26.4721L557.038 29.2361L554.51 27.5279L551.982 29.2361L552.948 26.4721L550.42 24.7639H553.545L554.51 22Z" fill="#3B8D99"/>
<path id="Star_112" d="M598.594 8L599.559 10.7639H602.684L600.156 12.4721L601.122 15.2361L598.594 13.5279L596.066 15.2361L597.031 12.4721L594.503 10.7639H597.628L598.594 8Z" fill="#239494"/>
<path id="Star_113" d="M484.621 31L485.587 33.7639H488.712L486.184 35.4721L487.149 38.2361L484.621 36.5279L482.093 38.2361L483.059 35.4721L480.531 33.7639H483.656L484.621 31Z" fill="#670852"/>
<path id="Star_114" d="M517.953 49L518.918 51.7639H522.043L519.515 53.4721L520.481 56.2361L517.953 54.5279L515.425 56.2361L516.39 53.4721L513.862 51.7639H516.987L517.953 49Z" fill="#265B63"/>
<path id="Star_115" d="M610.421 39L611.387 41.7639H614.512L611.984 43.4721L612.949 46.2361L610.421 44.5279L607.893 46.2361L608.859 43.4721L606.331 41.7639H609.456L610.421 39Z" fill="#3B8D99"/>
<path id="Star_116" d="M797.509 76L798.474 78.7639H801.599L799.071 80.4721L800.037 83.2361L797.509 81.5279L794.981 83.2361L795.946 80.4721L793.419 78.7639H796.543L797.509 76Z" fill="#3B8D99"/>
<path id="Star_117" d="M815.787 88L816.753 90.7639H819.878L817.35 92.4721L818.315 95.2361L815.787 93.5279L813.259 95.2361L814.225 92.4721L811.697 90.7639H814.822L815.787 88Z" fill="#582838"/>
<path id="Star_118" d="M859.871 74L860.837 76.7639H863.962L861.434 78.4721L862.399 81.2361L859.871 79.5279L857.343 81.2361L858.309 78.4721L855.781 76.7639H858.906L859.871 74Z" fill="#670852"/>
<path id="Star_119" d="M745.899 97L746.864 99.7639H749.989L747.461 101.472L748.427 104.236L745.899 102.528L743.371 104.236L744.336 101.472L741.808 99.7639H744.933L745.899 97Z" fill="#265B63"/>
<path id="Star_120" d="M871.699 105L872.664 107.764H875.789L873.261 109.472L874.227 112.236L871.699 110.528L869.171 112.236L870.136 109.472L867.608 107.764H870.733L871.699 105Z" fill="#3B8D99"/>
<path id="Star_121" d="M694.288 21L695.254 23.7639H698.379L695.851 25.4721L696.816 28.2361L694.288 26.5279L691.76 28.2361L692.726 25.4721L690.198 23.7639H693.323L694.288 21Z" fill="#AA4B6B"/>
<path id="Star_122" d="M554.51 64L555.476 66.7639H558.601L556.073 68.4721L557.038 71.2361L554.51 69.5279L551.982 71.2361L552.948 68.4721L550.42 66.7639H553.545L554.51 64Z" fill="#582838"/>
<path id="Star_123" d="M540.062 100.944L537.867 98.8757L535.074 100.178L536.511 97.5973L534.316 95.5288L537.399 96.0024L538.836 93.4217L539.304 96.2951L542.387 96.7687L539.594 98.0709L540.062 100.944Z" fill="#582838"/>
<path id="Star_124" d="M462.215 148.42L460.02 146.352L457.226 147.654L458.663 145.073L456.468 143.005L459.551 143.478L460.988 140.898L461.457 143.771L464.54 144.244L461.746 145.547L462.215 148.42Z" fill="#3B8D99"/>
<path id="Star_125" d="M500.154 102.77L497.959 100.701L495.165 102.003L496.602 99.4227L494.407 97.3542L497.49 97.8278L498.927 95.2472L499.396 98.1205L502.479 98.5941L499.685 99.8963L500.154 102.77Z" fill="#265B63"/>
<path id="Star_126" d="M246.291 144.145L244.096 142.077L241.303 143.379L242.74 140.798L240.545 138.73L243.628 139.203L245.065 136.623L245.533 139.496L248.616 139.97L245.823 141.272L246.291 144.145Z" fill="#265B63"/>
<path id="Star_127" d="M129.973 189.42L127.778 187.352L124.985 188.654L126.422 186.073L124.227 184.005L127.31 184.478L128.747 181.898L129.215 184.771L132.298 185.244L129.505 186.547L129.973 189.42Z" fill="#3B8D99"/>
<path id="Star_128" d="M91.9959 57.4274L89.801 55.3589L87.0075 56.6611L88.4445 54.0804L86.2496 52.0119L89.3326 52.4855L90.7696 49.9049L91.238 52.7782L94.321 53.2518L91.5275 54.554L91.9959 57.4274Z" fill="#3B8D99"/>
<path id="Star_129" d="M69.8733 54.317L67.6785 52.2485L64.885 53.5507L66.3219 50.9701L64.1271 48.9016L67.2101 49.3752L68.647 46.7945L69.1154 49.6679L72.1984 50.1415L69.4049 51.4437L69.8733 54.317Z" fill="#3B8D99"/>
<path id="Star_130" d="M37.2083 85.2045L35.0134 83.136L32.2199 84.4382L33.6569 81.8575L31.462 79.789L34.545 80.2626L35.982 77.682L36.4504 80.5553L39.5334 81.0289L36.7399 82.3311L37.2083 85.2045Z" fill="#239494"/>
<path id="Star_131" d="M128.017 17.1451L125.823 15.0766L123.029 16.3789L124.466 13.7982L122.271 11.7297L125.354 12.2033L126.791 9.62266L127.259 12.496L130.342 12.9696L127.549 14.2718L128.017 17.1451Z" fill="#265B63"/>
<path id="Star_132" d="M89.5467 14.9442L87.3518 12.8757L84.5583 14.1779L85.9953 11.5973L83.8004 9.52878L86.8834 10.0024L88.3204 7.42173L88.7888 10.2951L91.8718 10.7687L89.0783 12.0709L89.5467 14.9442Z" fill="#265B63"/>
<path id="Star_133" d="M11.6995 62.42L9.50463 60.3515L6.71113 61.6538L8.14812 59.0731L5.95324 57.0046L9.03622 57.4782L10.4732 54.8976L10.9416 57.7709L14.0246 58.2445L11.2311 59.5467L11.6995 62.42Z" fill="#AA4B6B"/>
<path id="Star_134" d="M49.6385 16.7697L47.4436 14.7011L44.6501 16.0034L46.0871 13.4227L43.8922 11.3542L46.9752 11.8278L48.4122 9.24717L48.8806 12.1205L51.9636 12.5941L49.1701 13.8963L49.6385 16.7697Z" fill="#265B63"/>
<path id="Star_135" d="M163.891 52.2351L166.708 53.4935L168.865 51.391L168.448 54.2712L171.265 55.5296L168.191 56.0513L167.775 58.9316L166.291 56.3737L163.217 56.8954L165.374 54.7929L163.891 52.2351Z" fill="#582838"/>
<path id="Star_136" d="M185.845 48.2207L188.661 49.4791L190.818 47.3766L190.402 50.2568L193.219 51.5152L190.145 52.0369L189.728 54.9171L188.245 52.3593L185.171 52.881L187.328 50.7785L185.845 48.2207Z" fill="#3B8D99"/>
<path id="Star_137" d="M205.388 8.89375L208.205 10.1522L210.362 8.04967L209.945 10.9299L212.762 12.1883L209.688 12.71L209.272 15.5902L207.788 13.0324L204.714 13.5541L206.871 11.4516L205.388 8.89375Z" fill="#239494"/>
<path id="Star_138" d="M144.597 101.459L147.413 102.717L149.57 100.615L149.154 103.495L151.971 104.754L148.897 105.275L148.48 108.155L146.997 105.598L143.923 106.119L146.08 104.017L144.597 101.459Z" fill="#265B63"/>
<path id="Star_139" d="M181.609 91.4582L184.426 92.7166L186.583 90.6141L186.167 93.4944L188.983 94.7528L185.909 95.2745L185.493 98.1547L184.009 95.5969L180.935 96.1185L183.093 94.016L181.609 91.4582Z" fill="#265B63"/>
<path id="Star_140" d="M237.667 22.3366L240.484 23.595L242.641 21.4925L242.225 24.3728L245.041 25.6312L241.967 26.1529L241.551 29.0331L240.068 26.4753L236.994 26.997L239.151 24.8945L237.667 22.3366Z" fill="#AA4B6B"/>
<path id="Star_141" d="M218.515 77.2158L221.332 78.4742L223.489 76.3717L223.072 79.2519L225.889 80.5103L222.815 81.032L222.399 83.9123L220.915 81.3544L217.841 81.8761L219.998 79.7736L218.515 77.2158Z" fill="#265B63"/>
<path id="Star_142" d="M365.101 56.4274L362.906 54.3589L360.112 55.6611L361.549 53.0804L359.355 51.0119L362.438 51.4855L363.875 48.9049L364.343 51.7782L367.426 52.2518L364.632 53.554L365.101 56.4274Z" fill="#3B8D99"/>
<path id="Star_143" d="M342.978 53.317L340.783 51.2485L337.989 52.5507L339.426 49.9701L337.232 47.9016L340.315 48.3752L341.752 45.7945L342.22 48.6679L345.303 49.1415L342.509 50.4437L342.978 53.317Z" fill="#3B8D99"/>
<path id="Star_144" d="M310.313 84.2045L308.118 82.136L305.325 83.4382L306.762 80.8575L304.567 78.789L307.65 79.2626L309.087 76.682L309.555 79.5553L312.638 80.0289L309.845 81.3311L310.313 84.2045Z" fill="#239494"/>
<path id="Star_145" d="M401.122 16.1451L398.927 14.0766L396.133 15.3789L397.57 12.7982L395.376 10.7297L398.459 11.2033L399.896 8.62266L400.364 11.496L403.447 11.9696L400.653 13.2718L401.122 16.1451Z" fill="#265B63"/>
<path id="Star_146" d="M362.652 13.9442L360.457 11.8757L357.663 13.1779L359.1 10.5973L356.905 8.52878L359.988 9.00237L361.425 6.42173L361.894 9.29506L364.977 9.76866L362.183 11.0709L362.652 13.9442Z" fill="#265B63"/>
<path id="Star_147" d="M284.804 61.42L282.609 59.3515L279.816 60.6538L281.253 58.0731L279.058 56.0046L282.141 56.4782L283.578 53.8976L284.046 56.7709L287.129 57.2445L284.336 58.5467L284.804 61.42Z" fill="#3B8D99"/>
<path id="Star_148" d="M322.743 15.7697L320.548 13.7011L317.755 15.0034L319.192 12.4227L316.997 10.3542L320.08 10.8278L321.517 8.24717L321.985 11.1205L325.068 11.5941L322.275 12.8963L322.743 15.7697Z" fill="#265B63"/>
</g>
<g id="Frame">
<g id="LightBeam" filter="url(#filter0_d)">
<path d="M1446.5 214.414L1618.51 110.889L1751.61 41.7865L1642.43 243.117L1547.88 236.635L1446.5 214.414Z" fill="#FCFCFC"/>
</g>
<g id="cow" filter="url(#filter1_d)">
<g id="Group">
<path id="Vector" d="M1638.58 134.471C1639.43 134.534 1640.07 135.258 1640.01 136.087L1639.7 139.942C1639.64 140.771 1638.89 141.392 1638.04 141.328C1637.18 141.265 1636.54 140.542 1636.61 139.712L1636.91 135.857C1636.98 135.028 1637.72 134.408 1638.58 134.471Z" fill="#FF968A"/>
<path id="Vector_2" d="M1648.43 135.199C1649.29 135.263 1649.93 135.986 1649.86 136.815L1649.56 140.67C1649.49 141.499 1648.75 142.12 1647.89 142.056C1647.04 141.993 1646.4 141.27 1646.46 140.441L1646.76 136.586C1646.83 135.756 1647.57 135.136 1648.43 135.199Z" fill="#FF968A"/>
<path id="Vector_3" d="M1643.57 133.517C1644.42 133.58 1645.06 134.303 1645 135.132L1644.69 138.987C1644.63 139.817 1643.88 140.437 1643.03 140.374C1642.17 140.311 1641.53 139.587 1641.6 138.758L1641.9 134.903C1641.97 134.074 1642.71 133.453 1643.57 133.517Z" fill="#FF968A"/>
</g>
<g id="Group_2">
<path id="Vector_4" d="M1675.93 158.705C1676.73 158.999 1677.14 159.868 1676.83 160.646L1673.97 168.02C1672.46 171.897 1667.98 173.859 1663.99 172.395C1663.19 172.101 1662.78 171.232 1663.08 170.454C1663.39 169.676 1664.28 169.284 1665.09 169.579C1667.48 170.455 1670.16 169.278 1671.06 166.955L1673.93 159.581C1674.23 158.803 1675.13 158.411 1675.93 158.705Z" fill="#91AAC4"/>
<path id="Vector_5" d="M1619.57 122.439L1620.28 120.222C1620.36 119.958 1620.64 119.784 1620.96 119.808L1627.18 120.268C1627.61 120.3 1627.92 120.652 1627.85 121.026L1627.22 124.56L1623.27 146.803L1614.8 149.406L1622.45 125.129C1622.47 125.059 1622.47 124.988 1622.47 124.917C1622.45 124.745 1622.34 124.585 1622.17 124.484L1619.84 123.087C1619.6 122.943 1619.49 122.683 1619.57 122.439Z" fill="#91AAC4"/>
</g>
<path id="Vector_6" d="M1619.53 122.964L1620.27 120.311C1620.36 119.995 1620.64 119.784 1620.96 119.807L1627.18 120.268C1627.61 120.3 1627.91 120.715 1627.84 121.162L1627.15 125.386L1622.39 125.878C1622.37 125.673 1622.27 125.484 1622.1 125.366L1619.79 123.733C1619.55 123.566 1619.45 123.256 1619.53 122.964Z" fill="#3F5666"/>
<path id="Vector_7" d="M1655.65 138.5L1656.39 129.119C1656.4 128.96 1656.36 128.803 1656.27 128.676C1656.22 128.61 1656.17 128.554 1656.1 128.505L1653.34 126.552C1653.17 126.436 1653.07 126.257 1653.05 126.062L1652.72 122.982C1652.67 122.549 1653.04 122.183 1653.48 122.216L1660.51 122.736C1660.9 122.765 1661.19 123.099 1661.16 123.482L1659.67 142.55L1653.48 148.769L1642.55 150.428L1651.04 141.488L1655.65 138.5Z" fill="#91AAC4"/>
<path id="Vector_8" d="M1653.48 122.216L1660.51 122.736C1660.9 122.765 1661.19 123.099 1661.16 123.482L1660.79 128.258L1656.27 128.676C1656.22 128.61 1656.17 128.553 1656.1 128.505L1653.34 126.552C1653.17 126.436 1653.07 126.257 1653.05 126.062L1652.72 122.982C1652.67 122.55 1653.04 122.183 1653.48 122.216Z" fill="#3F5666"/>
<path id="Vector_9" d="M1643.19 138.262C1637.44 137.835 1632.45 141.544 1632.06 146.544C1631.67 151.545 1636.02 155.944 1641.77 156.371C1647.53 156.797 1652.51 153.089 1652.91 148.088C1653.3 143.088 1648.95 138.688 1643.19 138.262Z" fill="#E8C1B5"/>
<path id="Vector_10" d="M1648.93 147.793C1648.58 152.203 1644.66 155.606 1639.8 156.057C1640.43 156.212 1641.09 156.32 1641.77 156.37C1647.53 156.797 1652.51 153.088 1652.91 148.088C1653.3 143.087 1648.95 138.688 1643.19 138.261C1642.51 138.211 1641.85 138.22 1641.19 138.281C1645.93 139.443 1649.28 143.383 1648.93 147.793Z" fill="#CCA295"/>
<path id="Vector_11" d="M1574.83 173.944L1575.15 169.765C1575.35 167.255 1580.29 165.502 1580.29 165.502L1582.52 165.187L1592.13 163.824C1592.13 163.824 1592.15 163.819 1592.18 163.811L1592.18 163.811C1592.65 163.683 1598.86 150.955 1602.56 149.316C1609.38 146.29 1608.76 125.863 1608.76 125.863C1608.76 125.779 1608.73 125.695 1608.7 125.619C1608.66 125.525 1608.6 125.443 1608.52 125.374L1604.96 122.354C1604.75 122.171 1604.67 121.885 1604.76 121.622L1605.57 119.202C1605.67 118.895 1605.98 118.697 1606.32 118.722L1613.08 119.223C1613.45 119.25 1613.76 119.518 1613.82 119.871L1614.46 124.647L1613.28 143.489C1613.33 143.832 1613.63 144.097 1613.99 144.132L1614.72 144.212L1637.83 146.709L1650.06 148.031C1650.27 148.053 1650.48 147.996 1650.65 147.867L1656.04 143.915L1662.04 139.546C1663.04 139.348 1663.04 139.348 1663.04 139.348L1666.05 139.348C1666.49 139.381 1666.88 139.065 1666.92 138.641L1667.65 129.245C1667.66 129.121 1667.64 128.996 1667.59 128.884C1667.54 128.78 1667.47 128.682 1667.38 128.607L1665.63 127.136C1665.49 127.019 1665.39 126.859 1665.36 126.687L1664.88 124.017C1664.79 123.523 1665.21 123.083 1665.73 123.122L1672.34 123.611C1672.78 123.644 1673.11 124.013 1673.08 124.435L1671.53 144.086C1671.51 144.384 1671.31 144.641 1671.02 144.746L1668.54 147.038C1668.24 147.145 1668.04 147.402 1668.02 147.698L1667.11 160.268L1666.39 170.126C1666.17 173.128 1664.89 175.823 1662.91 177.887C1660.31 180.603 1656.52 182.236 1652.37 182.058L1639.04 181.121L1617.28 179.588L1612.49 179.252L1590.86 180.582C1589.47 180.479 1588.18 179.85 1587.28 178.837L1586.23 177.665C1585.32 176.654 1584.03 176.027 1582.65 175.924L1576.17 175.444C1575.37 175.385 1574.77 174.712 1574.83 173.944Z" fill="#E1E9F2"/>
<path id="Vector_12" d="M1667.54 143.395C1667.52 143.703 1667.32 143.971 1667.03 144.081L1664.58 146.465C1664.29 146.577 1664.09 146.843 1664.07 147.151L1663.12 160.172L1662.37 170.385C1662.14 173.497 1660.87 176.291 1658.92 178.437C1657.42 180.089 1655.51 181.354 1653.38 182.09C1657.17 182.049 1660.61 180.449 1663.01 177.894C1664.96 175.827 1666.22 173.132 1666.44 170.13L1667.16 160.271L1668.07 147.703C1668.1 147.406 1668.3 147.15 1668.58 147.043L1671.03 144.747C1671.31 144.642 1671.51 144.383 1671.54 144.086L1673.08 124.436C1673.11 124.013 1672.79 123.645 1672.35 123.612L1669.11 123.373L1667.54 143.395Z" fill="#B3D2F2"/>
<g id="Group_3">
<path id="Vector_13" d="M1665.86 123.133L1672.35 123.613C1672.79 123.646 1673.11 124.015 1673.08 124.44L1672.76 128.536L1667.68 128.89C1667.63 128.786 1667.56 128.69 1667.47 128.614L1665.75 127.146C1665.61 127.029 1665.52 126.869 1665.49 126.698L1665.02 124.028C1664.93 123.535 1665.35 123.095 1665.86 123.133Z" fill="#3F5666"/>
<path id="Vector_14" d="M1605.9 121.708L1606.71 119.287C1606.81 118.981 1607.11 118.782 1607.44 118.806L1614.1 119.299C1614.46 119.326 1614.76 119.592 1614.82 119.945L1615.45 124.72L1609.78 125.699C1609.74 125.605 1609.68 125.522 1609.6 125.453L1606.11 122.439C1605.9 122.257 1605.82 121.97 1605.9 121.708Z" fill="#3F5666"/>
</g>
<path id="Vector_15" d="M1618.03 177.112C1618.49 171.218 1623.79 166.804 1629.86 167.254C1635.93 167.703 1640.48 172.846 1640.01 178.74C1639.95 179.579 1639.78 180.388 1639.53 181.157L1618.14 179.652C1618 178.83 1617.96 177.98 1618.03 177.112Z" fill="#2F3F4A"/>
<path id="Vector_16" d="M1574.27 173.918L1574.59 169.785C1574.79 167.303 1580.91 165.66 1580.91 165.66L1583.68 165.391C1586.06 169.163 1584.08 173.132 1581.91 175.869L1575.98 175.43C1574.98 175.356 1574.21 174.678 1574.27 173.918Z" fill="#E5BEB3"/>
<g id="Group_4">
<path id="Vector_17" d="M1655.82 168.399C1656.21 163.422 1660.68 159.695 1665.81 160.074C1666.27 160.108 1666.72 160.175 1667.16 160.271L1666.44 170.13C1666.22 173.133 1664.96 175.827 1663.01 177.894C1658.6 176.912 1655.47 172.917 1655.82 168.399Z" fill="#2F3F4A"/>
<path id="Vector_18" d="M1615.67 144.282L1638.39 146.75C1636.93 151.239 1632.01 154.324 1626.45 153.912C1620.57 153.477 1616.01 149.292 1615.67 144.282Z" fill="#2F3F4A"/>
<path id="Vector_19" d="M1590.22 173.499C1589.36 173.436 1588.62 174.057 1588.55 174.886C1588.49 175.715 1589.13 176.438 1589.98 176.502C1590.84 176.565 1591.58 175.944 1591.65 175.115C1591.71 174.286 1591.07 173.563 1590.22 173.499Z" fill="#2F3F4A"/>
<path id="Vector_20" d="M1576.08 172.589C1575.74 172.564 1575.44 172.871 1575.4 173.275C1575.37 173.679 1575.62 174.027 1575.96 174.052C1576.3 174.077 1576.6 173.77 1576.64 173.366C1576.67 172.962 1576.42 172.614 1576.08 172.589Z" fill="#582838" fill-opacity="0.39"/>
</g>
<path id="Vector_21" d="M1591.93 179.596C1592.58 180.816 1594.28 183.584 1597.02 185.185C1597.49 185.462 1598.1 185.174 1598.16 184.641C1598.38 182.667 1598.68 178.393 1597.51 175.964C1597.31 175.534 1596.74 175.411 1596.36 175.709C1595.51 176.378 1593.94 177.566 1592.2 178.647C1591.87 178.85 1591.75 179.261 1591.93 179.596Z" fill="#E1E9F2"/>
<path id="Vector_22" d="M1593.42 179.909C1593.77 180.565 1594.68 182.052 1596.15 182.913C1596.41 183.061 1596.73 182.907 1596.77 182.62C1596.88 181.559 1597.04 179.263 1596.42 177.957C1596.31 177.727 1596 177.66 1595.8 177.821C1595.34 178.18 1594.5 178.818 1593.56 179.399C1593.38 179.508 1593.32 179.729 1593.42 179.909Z" fill="#91AAC4"/>
<path id="Vector_23" d="M1676.75 152.553L1673.86 158.946C1673.68 159.341 1673.87 159.803 1674.27 159.976C1677.25 161.245 1680.73 159.927 1682.04 157.033L1684.92 150.64C1685.1 150.244 1684.92 149.783 1684.51 149.61C1681.53 148.341 1678.05 149.659 1676.75 152.553Z" fill="#2F3F4A"/>
</g>
<g id="SpaceShip">
<ellipse id="Ellipse" cx="1743.97" cy="40.6043" rx="69.9705" ry="28.6043" fill="#3B8D99"/>
<g id="Ellipse 2.1" filter="url(#filter2_d)">
<ellipse cx="1743.97" cy="34.0032" rx="33.8851" ry="14.0821" fill="#AA4B6B"/>
</g>
<path id="Ellipse 3.1" d="M1761.13 28.7518C1761.13 33.5964 1753.25 37.5238 1743.53 37.5238C1733.81 37.5238 1725.93 33.5964 1725.93 28.7518C1725.93 23.9072 1733.81 17.2808 1743.53 17.2808C1753.25 17.2808 1761.13 23.9072 1761.13 28.7518Z" fill="#1F1F25"/>
</g>
</g>
<g id="Fog" opacity="0.06" filter="url(#filter3_d)">
<path d="M1.73266 171.313L212.214 140.014C239.728 135.922 267.567 134.431 295.361 135.561L493.2 143.6L730.366 172.206L863.269 183.38C873.569 184.246 883.929 184.136 894.209 183.052L1170.73 153.89L1426.2 135.3L1748.09 145.055C1750.01 145.113 1751.92 145.332 1753.8 145.711L1909.29 177.033C1945.28 184.283 1974.25 147.557 1958.81 114.245C1956.57 109.421 1951.84 106.243 1946.53 106.001L1590.23 89.7908L1314.1 89.6278L1168.47 76.1103C1110.8 70.7575 1052.74 71.2988 995.179 77.726L913.29 86.8698L744.838 105.679L477.977 64.6512C433.779 57.8561 388.971 55.9175 344.351 58.87L213.22 67.5472L1.83372 88.8528L1.73266 171.313Z" fill="#B8B8B8"/>
</g>
<g id="Fog2" opacity="0.04" filter="url(#filter4_d)">
<path d="M38.4536 104.537L218.815 83.3283C240.754 80.7485 262.855 79.8134 284.933 80.5309L491.349 87.2384L728.479 109.991L864.539 119.101C872.729 119.649 880.949 119.582 889.13 118.9L1168.76 95.572L1424.18 80.8901L1748.89 88.7796L1977.84 125.695C1984.47 126.764 1989.34 119.62 1985.93 113.835C1965.44 79.1045 1928.66 57.2079 1888.36 55.743L1588.16 44.8307L1312.08 44.6315L1148.69 32.5569C1102.81 29.167 1056.74 29.4976 1010.92 33.5455L911.346 42.3422L836.77 48.9305C774.383 54.442 711.589 53.3897 649.421 45.7909L466.534 23.4364C428.666 18.8076 390.466 17.481 352.367 19.4717L211.403 26.837L27.7002 41.351C12.3434 42.5643 0.50001 55.3802 0.500051 70.7849C0.500022 91.1271 18.2505 106.913 38.4536 104.537Z" fill="#B8B8B8"/>
</g>
<g id="BuildingMiddle">
<rect id="Front" x="67" y="113.998" width="116.109" height="227.002" fill="#090909"/>
<g id="Windows">
<rect id="Rectangle 2.6" x="81.3506" y="199.124" width="22.1781" height="26.1053" fill="#582838"/>
<rect id="Rectangle 2.7" x="113.966" y="199.124" width="22.1781" height="26.1053" fill="#582838"/>
<rect id="Rectangle 2.8" x="146.58" y="199.124" width="22.1781" height="26.1053" fill="#582838"/>
<rect id="Rectangle 2.9" x="81.3506" y="234.309" width="22.1781" height="26.1053" fill="#582838"/>
<rect id="Rectangle 2.10" x="113.966" y="234.309" width="22.1781" height="26.1053" fill="#582838"/>
<rect id="Rectangle 2.11" x="146.58" y="234.309" width="22.1781" height="26.1053" fill="#582838"/>
<rect id="Rectangle 2" x="81.3511" y="128.753" width="22.1781" height="26.1053" fill="#582838"/>
<rect id="Rectangle 2.1" x="113.966" y="128.753" width="22.1781" height="26.1053" fill="#582838"/>
<rect id="Rectangle 2.2" x="146.58" y="128.753" width="22.1781" height="26.1053" fill="#582838"/>
<rect id="Rectangle 2.3" x="81.3506" y="163.938" width="22.1781" height="26.1053" fill="#582838"/>
<rect id="Rectangle 2.4" x="113.966" y="163.938" width="22.1781" height="26.1053" fill="#582838"/>
<rect id="Rectangle 2.5" x="146.58" y="163.938" width="22.1781" height="26.1053" fill="#582838"/>
</g>
<path id="Side" d="M183.109 113.998L192.893 93V341H183.109V113.998Z" fill="black"/>
<path id="Top" d="M89.4461 93.001H192.893L183.109 113.999H67L89.4461 93.001Z" fill="#313131"/>
</g>
<g id="BuildingMiddle_2">
<rect id="Front_2" x="1314" y="110.32" width="116.109" height="219.68" fill="#090909"/>
<g id="Windows_2">
<rect id="Rectangle 2.6_2" x="1328.35" y="192.7" width="22.1781" height="25.2632" fill="#582838"/>
<rect id="Rectangle 2.7_2" x="1360.97" y="192.7" width="22.1781" height="25.2632" fill="#582838"/>
<rect id="Rectangle 2.8_2" x="1393.58" y="192.7" width="22.1781" height="25.2632" fill="#582838"/>
<rect id="Rectangle 2.9_2" x="1328.35" y="226.751" width="22.1781" height="25.2632" fill="#582838"/>
<rect id="Rectangle 2.10_2" x="1360.97" y="226.751" width="22.1781" height="25.2632" fill="#582838"/>
<rect id="Rectangle 2.11_2" x="1393.58" y="226.751" width="22.1781" height="25.2632" fill="#582838"/>
<rect id="Rectangle 2_2" x="1328.35" y="124.6" width="22.1781" height="25.2632" fill="#582838"/>
<rect id="Rectangle 2.1_2" x="1360.97" y="124.6" width="22.1781" height="25.2632" fill="#582838"/>
<rect id="Rectangle 2.2_2" x="1393.58" y="124.6" width="22.1781" height="25.2632" fill="#582838"/>
<rect id="Rectangle 2.3_2" x="1328.35" y="158.65" width="22.1781" height="25.2632" fill="#582838"/>
<rect id="Rectangle 2.4_2" x="1360.97" y="158.65" width="22.1781" height="25.2632" fill="#582838"/>
<rect id="Rectangle 2.5_2" x="1393.58" y="158.65" width="22.1781" height="25.2632" fill="#582838"/>
</g>
<path id="Side_2" d="M1430.11 110.32L1439.89 90V330H1430.11V110.32Z" fill="black"/>
<path id="Top_2" d="M1336.45 90.001H1439.89L1430.11 110.321H1314L1336.45 90.001Z" fill="#313131"/>
</g>
<g id="BuildingBack">
<rect id="Rectangle" x="282" y="105.76" width="116.109" height="235.24" fill="#404040"/>
<g id="Windows_3">
<rect id="Rectangle 2.6_3" x="296.351" y="193.975" width="22.1781" height="27.0526" fill="#AA4B6B"/>
<rect id="Rectangle 2.7_3" x="328.965" y="193.975" width="22.1781" height="27.0526" fill="#AA4B6B"/>
<rect id="Rectangle 2.8_3" x="361.58" y="193.975" width="22.1781" height="27.0526" fill="#AA4B6B"/>
<rect id="Rectangle 2.9_3" x="296.351" y="230.437" width="22.1781" height="27.0526" fill="#AA4B6B"/>
<rect id="Rectangle 2.10_3" x="328.965" y="230.437" width="22.1781" height="27.0526" fill="#AA4B6B"/>
<rect id="Rectangle 2.11_3" x="361.58" y="230.437" width="22.1781" height="27.0526" fill="#AA4B6B"/>
<rect id="Rectangle 2_3" x="296.351" y="121.05" width="22.1781" height="27.0526" fill="#AA4B6B"/>
<rect id="Rectangle 2.1_3" x="328.965" y="121.05" width="22.1781" height="27.0526" fill="#AA4B6B"/>
<rect id="Rectangle 2.2_3" x="361.58" y="121.05" width="22.1781" height="27.0526" fill="#AA4B6B"/>
<rect id="Rectangle 2.3_3" x="296.351" y="157.512" width="22.1781" height="27.0526" fill="#AA4B6B"/>
<rect id="Rectangle 2.4_3" x="328.965" y="157.512" width="22.1781" height="27.0526" fill="#AA4B6B"/>
<rect id="Rectangle 2.5_3" x="361.58" y="157.512" width="22.1781" height="27.0526" fill="#AA4B6B"/>
</g>
<path id="Side_3" d="M398.109 105.76L413.764 84V341H398.109V105.76Z" fill="black"/>
<path id="Top_3" d="M310.375 84.0002H413.764L398.109 105.76H282L310.375 84.0002Z" fill="#252525"/>
</g>
<g id="BuildingMiddle_3">
<rect id="Front_3" x="377" y="80.135" width="116.109" height="260.918" fill="#B8B8B8"/>
<g id="Windows_4">
<rect id="Rectangle 2.6_4" x="391.351" y="177.979" width="22.1781" height="30.0056" fill="#239494"/>
<rect id="Rectangle 2.7_4" x="423.966" y="177.979" width="22.1781" height="30.0056" fill="#239494"/>
<rect id="Rectangle 2.8_4" x="456.58" y="177.979" width="22.1781" height="30.0056" fill="#239494"/>
<rect id="Rectangle 2.9_4" x="391.351" y="218.422" width="22.1781" height="30.0056" fill="#239494"/>
<rect id="Rectangle 2.10_4" x="423.966" y="218.422" width="22.1781" height="30.0056" fill="#239494"/>
<rect id="Rectangle 2.11_4" x="456.58" y="218.422" width="22.1781" height="30.0056" fill="#239494"/>
<rect id="Rectangle 2_4" x="391.351" y="97.0952" width="22.1781" height="30.0056" fill="#239494"/>
<rect id="Rectangle 2.1_4" x="423.966" y="97.0947" width="22.1781" height="30.0056" fill="#239494"/>
<rect id="Rectangle 2.2_4" x="456.58" y="97.0947" width="22.1781" height="30.0056" fill="#239494"/>
<rect id="Rectangle 2.3_4" x="391.351" y="137.537" width="22.1781" height="30.0056" fill="#239494"/>
<rect id="Rectangle 2.4_4" x="423.966" y="137.537" width="22.1781" height="30.0056" fill="#239494"/>
<rect id="Rectangle 2.5_4" x="456.58" y="137.537" width="22.1781" height="30.0056" fill="#239494"/>
</g>
<path id="Side_4" d="M493.109 80.135L502.893 56V341.053H493.109V80.135Z" fill="black"/>
<path id="Top_4" d="M399.446 56.001H502.893L493.109 80.1359H377L399.446 56.001Z" fill="#535353"/>
</g>
<g id="BuildingMiddle_4">
<rect id="Front_4" x="859" y="61.135" width="116.109" height="260.918" fill="#B8B8B8"/>
<g id="Windows_5">
<rect id="Rectangle 2.6_5" x="873.351" y="158.979" width="22.1781" height="30.0056" fill="#239494"/>
<rect id="Rectangle 2.7_5" x="905.966" y="158.979" width="22.1781" height="30.0056" fill="#239494"/>
<rect id="Rectangle 2.8_5" x="938.58" y="158.979" width="22.1781" height="30.0056" fill="#239494"/>
<rect id="Rectangle 2.9_5" x="873.351" y="199.422" width="22.1781" height="30.0056" fill="#239494"/>
<rect id="Rectangle 2.10_5" x="905.966" y="199.422" width="22.1781" height="30.0056" fill="#239494"/>
<rect id="Rectangle 2.11_5" x="938.58" y="199.422" width="22.1781" height="30.0056" fill="#239494"/>
<rect id="Rectangle 2_5" x="873.351" y="78.0952" width="22.1781" height="30.0056" fill="#239494"/>
<rect id="Rectangle 2.1_5" x="905.966" y="78.0947" width="22.1781" height="30.0056" fill="#239494"/>
<rect id="Rectangle 2.2_5" x="938.58" y="78.0947" width="22.1781" height="30.0056" fill="#239494"/>
<rect id="Rectangle 2.3_5" x="873.351" y="118.537" width="22.1781" height="30.0056" fill="#239494"/>
<rect id="Rectangle 2.4_5" x="905.966" y="118.537" width="22.1781" height="30.0056" fill="#239494"/>
<rect id="Rectangle 2.5_5" x="938.58" y="118.537" width="22.1781" height="30.0056" fill="#239494"/>
</g>
<path id="Side_5" d="M975.109 61.135L984.893 37V322.053H975.109V61.135Z" fill="black"/>
<path id="Top_5" d="M881.446 37.001H984.893L975.109 61.1359H859L881.446 37.001Z" fill="#535353"/>
</g>
<g id="BuildingBack_2">
<rect id="Rectangle_2" x="1142" y="73.707" width="116.109" height="256.293" fill="#404040"/>
<g id="Windows_6">
<rect id="Rectangle 2.6_6" x="1156.35" y="169.817" width="22.1781" height="29.4737" fill="#7DAEAA"/>
<rect id="Rectangle 2.7_6" x="1188.97" y="169.817" width="22.1781" height="29.4737" fill="#7DAEAA"/>
<rect id="Rectangle 2.8_6" x="1221.58" y="169.817" width="22.1781" height="29.4737" fill="#7DAEAA"/>
<rect id="Rectangle 2.9_6" x="1156.35" y="209.542" width="22.1781" height="29.4737" fill="#7DAEAA"/>
<rect id="Rectangle 2.10_6" x="1188.97" y="209.542" width="22.1781" height="29.4737" fill="#7DAEAA"/>
<rect id="Rectangle 2.11_6" x="1221.58" y="209.542" width="22.1781" height="29.4737" fill="#7DAEAA"/>
<rect id="Rectangle 2_6" x="1156.35" y="90.3657" width="22.1781" height="29.4737" fill="#7DAEAA"/>
<rect id="Rectangle 2.1_6" x="1188.97" y="90.3657" width="22.1781" height="29.4737" fill="#7DAEAA"/>
<rect id="Rectangle 2.2_6" x="1221.58" y="90.3657" width="22.1781" height="29.4737" fill="#7DAEAA"/>
<rect id="Rectangle 2.3_6" x="1156.35" y="130.091" width="22.1781" height="29.4737" fill="#7DAEAA"/>
<rect id="Rectangle 2.4_6" x="1188.97" y="130.091" width="22.1781" height="29.4737" fill="#7DAEAA"/>
<rect id="Rectangle 2.5_6" x="1221.58" y="130.091" width="22.1781" height="29.4737" fill="#7DAEAA"/>
</g>
<path id="Side_6" d="M1258.11 73.7071L1273.76 50V330H1258.11V73.7071Z" fill="black"/>
<path id="Top_6" d="M1170.37 50.0002H1273.76L1258.11 73.7073H1142L1170.37 50.0002Z" fill="#252525"/>
</g>
<g id="BuildingMiddle_5">
<rect id="Front_5" x="743" y="97.7439" width="116.109" height="224.256" fill="#CDCDCD"/>
<g id="Windows_7">
<rect id="Rectangle 2.6_7" x="757.351" y="181.84" width="22.1781" height="25.7895" fill="#0C4040"/>
<rect id="Rectangle 2.7_7" x="789.966" y="181.84" width="22.1781" height="25.7895" fill="#0C4040"/>
<rect id="Rectangle 2.8_7" x="822.58" y="181.84" width="22.1781" height="25.7895" fill="#0C4040"/>
<rect id="Rectangle 2.9_7" x="757.351" y="216.6" width="22.1781" height="25.7895" fill="#0C4040"/>
<rect id="Rectangle 2.10_7" x="789.966" y="216.6" width="22.1781" height="25.7895" fill="#0C4040"/>
<rect id="Rectangle 2.11_7" x="822.58" y="216.6" width="22.1781" height="25.7895" fill="#0C4040"/>
<rect id="Rectangle 2_7" x="757.351" y="112.321" width="22.1781" height="25.7895" fill="#0C4040"/>
<rect id="Rectangle 2.1_7" x="789.966" y="112.32" width="22.1781" height="25.7895" fill="#0C4040"/>
<rect id="Rectangle 2.2_7" x="822.58" y="112.32" width="22.1781" height="25.7895" fill="#0C4040"/>
<rect id="Rectangle 2.3_7" x="757.351" y="147.08" width="22.1781" height="25.7895" fill="#0C4040"/>
<rect id="Rectangle 2.4_7" x="789.966" y="147.08" width="22.1781" height="25.7895" fill="#0C4040"/>
<rect id="Rectangle 2.5_7" x="822.58" y="147.08" width="22.1781" height="25.7895" fill="#0C4040"/>
</g>
<path id="Side_7" d="M859.109 97.7437L868.893 77V322H859.109V97.7437Z" fill="black"/>
<path id="Top_7" d="M765.446 77.001H868.893L859.109 97.7447H743L765.446 77.001Z" fill="#535353"/>
</g>
<g id="MountainsFG" filter="url(#filter5_d)">
<path d="M1997 351V167.296C1826.73 209.089 1650.94 223.803 1476.09 210.898L1454.5 209.304L1190 163.5C1063.91 146.335 935.082 146.247 809 163.5L538.5 209.304L514.877 211.006C338.366 223.721 161.458 192.452 0 120V351H1997Z" fill="#FCFCFC"/>
</g>
</g>
<defs>
<filter id="filter0_d" x="1406.5" y="5.78638" width="385.109" height="281.331" filterUnits="userSpaceOnUse" color-interpolation-filters="sRGB">
<feFlood flood-opacity="0" result="BackgroundImageFix"/>
<feColorMatrix in="SourceAlpha" type="matrix" values="0 0 0 0 0 0 0 0 0 0 0 0 0 0 0 0 0 0 127 0"/>
<feOffset dy="4"/>
<feGaussianBlur stdDeviation="20"/>
<feColorMatrix type="matrix" values="0 0 0 0 1 0 0 0 0 1 0 0 0 0 1 0 0 0 0.5 0"/>
<feBlend mode="normal" in2="BackgroundImageFix" result="effect1_dropShadow"/>
<feBlend mode="normal" in="SourceGraphic" in2="effect1_dropShadow" result="shape"/>
</filter>
<filter id="filter1_d" x="1564" y="108" width="131.073" height="95.3633" filterUnits="userSpaceOnUse" color-interpolation-filters="sRGB">
<feFlood flood-opacity="0" result="BackgroundImageFix"/>
<feColorMatrix in="SourceAlpha" type="matrix" values="0 0 0 0 0 0 0 0 0 0 0 0 0 0 0 0 0 0 127 0"/>
<feOffset dy="4"/>
<feGaussianBlur stdDeviation="2"/>
<feColorMatrix type="matrix" values="0 0 0 0 1 0 0 0 0 1 0 0 0 0 1 0 0 0 0.7 0"/>
<feBlend mode="normal" in2="BackgroundImageFix" result="effect1_dropShadow"/>
<feBlend mode="normal" in="SourceGraphic" in2="effect1_dropShadow" result="shape"/>
</filter>
<filter id="filter2_d" x="1706.56" y="19.9211" width="74.8112" height="35.2053" filterUnits="userSpaceOnUse" color-interpolation-filters="sRGB">
<feFlood flood-opacity="0" result="BackgroundImageFix"/>
<feColorMatrix in="SourceAlpha" type="matrix" values="0 0 0 0 0 0 0 0 0 0 0 0 0 0 0 0 0 0 127 0"/>
<feOffset dy="3.52053"/>
<feGaussianBlur stdDeviation="1.76026"/>
<feColorMatrix type="matrix" values="0 0 0 0 0.808398 0 0 0 0 0.174785 0 0 0 0 0.388212 0 0 0 1 0"/>
<feBlend mode="normal" in2="BackgroundImageFix" result="effect1_dropShadow"/>
<feBlend mode="normal" in="SourceGraphic" in2="effect1_dropShadow" result="shape"/>
</filter>
<filter id="filter3_d" x="-15.8844" y="-4.5467" width="1996.63" height="189.834" filterUnits="userSpaceOnUse" color-interpolation-filters="sRGB">
<feFlood flood-opacity="0" result="BackgroundImageFix"/>
<feColorMatrix in="SourceAlpha" type="matrix" values="0 0 0 0 0 0 0 0 0 0 0 0 0 0 0 0 0 0 127 0"/>
<feOffset dy="-44.0066"/>
<feGaussianBlur stdDeviation="8.80131"/>
<feColorMatrix type="matrix" values="0 0 0 0 0 0 0 0 0 0 0 0 0 0 0 0 0 0 0.6 0"/>
<feBlend mode="normal" in2="BackgroundImageFix" result="effect1_dropShadow"/>
<feBlend mode="normal" in="SourceGraphic" in2="effect1_dropShadow" result="shape"/>
</filter>
<filter id="filter4_d" x="-17.1671" y="-43.5076" width="2021.94" height="169.319" filterUnits="userSpaceOnUse" color-interpolation-filters="sRGB">
<feFlood flood-opacity="0" result="BackgroundImageFix"/>
<feColorMatrix in="SourceAlpha" type="matrix" values="0 0 0 0 0 0 0 0 0 0 0 0 0 0 0 0 0 0 127 0"/>
<feOffset dy="-44.0066"/>
<feGaussianBlur stdDeviation="8.80131"/>
<feColorMatrix type="matrix" values="0 0 0 0 0 0 0 0 0 0 0 0 0 0 0 0 0 0 0.6 0"/>
<feBlend mode="normal" in2="BackgroundImageFix" result="effect1_dropShadow"/>
<feBlend mode="normal" in="SourceGraphic" in2="effect1_dropShadow" result="shape"/>
</filter>
<filter id="filter5_d" x="-17.6026" y="58.3908" width="2032.21" height="292.609" filterUnits="userSpaceOnUse" color-interpolation-filters="sRGB">
<feFlood flood-opacity="0" result="BackgroundImageFix"/>
<feColorMatrix in="SourceAlpha" type="matrix" values="0 0 0 0 0 0 0 0 0 0 0 0 0 0 0 0 0 0 127 0"/>
<feOffset dy="-44.0066"/>
<feGaussianBlur stdDeviation="8.80131"/>
<feColorMatrix type="matrix" values="0 0 0 0 0 0 0 0 0 0 0 0 0 0 0 0 0 0 0.6 0"/>
<feBlend mode="normal" in2="BackgroundImageFix" result="effect1_dropShadow"/>
<feBlend mode="normal" in="SourceGraphic" in2="effect1_dropShadow" result="shape"/>
</filter>
<clipPath id="clip0">
<rect width="1997" height="351" fill="white"/>
</clipPath>
</defs>
</svg>
