<svg width="50" height="50" viewBox="0 0 50 50" fill="none" xmlns="http://www.w3.org/2000/svg">
<path d="M37.5 23.8432C37.8831 24.4216 38.2662 25 38.4615 25.9615H32.3092C32.3092 25.7662 32.3092 25.3831 32.497 25C32.6923 24.6169 32.6923 24.4216 33.0754 24.0385C33.2707 23.6553 33.6538 23.46 34.037 23.2722C34.4201 23.0769 34.9985 22.8816 35.5769 22.8816C36.3431 23.0769 37.1169 23.2722 37.5 23.8432ZM19.8092 22.4985C20.1923 22.1154 20.5754 21.537 20.5754 20.7707C20.5754 20.3876 20.5754 19.997 20.3876 19.6139C20.1923 19.4261 19.997 19.0355 19.8092 19.0355C19.6139 18.8477 19.2308 18.8477 18.8477 18.6523C18.4645 18.6523 18.0739 18.6523 17.6908 18.6523H13.8447V23.0769H18.0739C18.6523 23.0769 19.2308 22.8816 19.8092 22.4985ZM18.2692 25.7662H13.8447V30.9645H18.2692C18.6523 30.9645 19.0355 30.9645 19.4261 30.7692C19.8092 30.7692 20.1923 30.5739 20.3876 30.3861C20.5754 30.1908 20.9585 30.003 21.1538 29.6124C21.3492 29.2293 21.3492 28.8462 21.3492 28.463C21.3492 27.5015 21.1538 26.7278 20.5754 26.3447C19.997 25.9615 19.2308 25.7662 18.2692 25.7662ZM50 9.42007V40.5799C50 45.7707 45.7707 50 40.5799 50H9.42007C4.22927 50 0 45.7707 0 40.5799V9.42007C0 4.22927 4.22927 0 9.42007 0H40.5799C45.7707 0 50 4.22927 50 9.42007ZM31.5355 18.4645H39.2278V16.5415H31.5355V18.4645ZM25.3831 28.8462C25.3831 27.6893 25.1953 26.7278 24.6169 25.7662C24.0385 25 23.2722 24.4216 22.1154 24.0385C22.8816 23.6553 23.6553 23.0769 24.0385 22.4985C24.4216 21.9201 24.6169 21.1538 24.6169 20.1923C24.6169 19.2308 24.4216 18.6523 24.2338 17.8861C23.8432 17.3077 23.46 16.7293 23.0769 16.5415C22.4985 16.1508 21.9201 15.963 21.1538 15.7677C20.1923 15.3846 19.4261 15.3846 18.4645 15.3846H9.61538V34.2323H18.8477C19.6139 34.2323 20.5754 34.037 21.3492 33.8492C22.1154 33.6538 22.8816 33.2707 23.46 32.8876C24.0385 32.497 24.6169 31.9261 25 31.1523C25.1953 30.5739 25.3831 29.8077 25.3831 28.8462ZM32.3092 28.2677H42.1124C42.1124 27.1184 42.1124 26.1569 41.9246 25.1953C41.7293 24.2338 41.3462 23.2722 40.7677 22.6938C40.1893 21.9201 39.4231 21.3492 38.6568 20.9585C37.6953 20.5754 36.7338 20.1923 35.5769 20.1923C34.6154 20.1923 33.6538 20.3876 32.6923 20.7707C31.9261 21.1538 31.1523 21.7323 30.3861 22.3107C29.8077 22.8816 29.2293 23.6553 29.0415 24.6169C28.6508 25.5784 28.463 26.54 28.463 27.5015C28.463 28.463 28.6508 29.6124 29.0415 30.3861C29.4246 31.3477 29.8077 32.1139 30.3861 32.6923C30.9645 33.2707 31.7308 33.8492 32.497 34.2323C33.4585 34.6154 34.4201 34.8107 35.3816 34.8107C36.9216 34.8107 38.2662 34.4201 39.4231 33.6538C40.5799 32.8876 41.3462 31.7308 41.9246 30.1908H38.6568C38.4615 30.5739 38.2662 30.9645 37.6953 31.3477C37.1169 31.7308 36.5385 31.9261 35.7722 31.9261C34.8107 31.9261 33.8492 31.7308 33.2707 31.1523C32.6923 30.3861 32.3092 29.4246 32.3092 28.2677Z" fill="#FCFCFC"/>
</svg>
