<svg width="50" height="50" viewBox="0 0 50 50" fill="none" xmlns="http://www.w3.org/2000/svg">
<g clip-path="url(#clip0)">
<path d="M50 8.9598C48.1283 9.78988 46.2484 10.4165 44.165 10.6281C46.2484 9.37484 49.1699 8.79492 50 6.5C47.9167 7.75325 44.7917 7.50309 42.2933 7.50309C40.21 5.41976 37.5 4.1665 34.5866 4.1665C28.9551 4.1665 24.3734 8.74821 24.3734 14.3716C24.3734 15.2098 24.3734 16.0399 24.585 16.6665C16.985 16.2974 10.2155 13.1214 5.28984 8.02611C4.36681 7.07128 2.78473 7.14985 2.4367 8.43147C2.19171 9.33365 2.08333 10.2901 2.08333 11.2466C2.08333 14.3618 3.52613 17.1508 5.71226 19.0518C5.94479 19.254 5.77579 19.6614 5.47297 19.6043C4.30647 19.3843 3.19233 19.0607 2.27362 18.6303C2.15619 18.5753 2.08333 18.6202 2.08333 18.7498V18.7498C2.08333 22.7537 4.35624 26.2245 7.61671 27.8771C8.18052 28.1628 8.13535 29.1665 7.50326 29.1665V29.1665V29.1665C5.76829 29.1665 4.49504 30.2324 5.67831 31.5012C7.651 33.6166 10.568 35.2903 13.3282 35.8457C13.9301 35.9668 14.175 36.7995 13.6571 37.1294C10.4218 39.1899 6.61299 40.4132 2.49837 40.4132V40.4132C2.03049 40.4132 1.76084 41.2499 2.17558 41.4664C6.257 43.5978 10.8682 44.7915 15.625 44.7915C34.5866 44.7915 44.7917 29.1665 44.7917 15.6248C44.7917 15.2098 44.7917 14.7948 44.7917 14.3716C46.875 12.9149 48.5433 11.0431 50 8.9598Z" fill="#1F1F25"/>
<rect x="35" y="9" width="3" height="3" rx="1.5" fill="#FCFCFC"/>
</g>
<defs>
<clipPath id="clip0">
<rect width="50" height="50" fill="white"/>
</clipPath>
</defs>
</svg>
