<svg width="50" height="50" viewBox="0 0 50 50" fill="none" xmlns="http://www.w3.org/2000/svg">
<path d="M35 18.7499H29.1668V14.5832C29.1668 12.4332 29.3418 11.0791 32.4231 11.0791H34.2314C35.3814 11.0791 36.3147 10.1457 36.3147 8.99575V6.38325C36.3147 5.29367 35.4793 4.36242 34.3918 4.2895C33.1335 4.20408 31.8731 4.1645 30.6106 4.16658C24.9585 4.16658 20.8335 7.61867 20.8335 13.9562V18.7499H16.6668C15.5168 18.7499 14.5835 19.6832 14.5835 20.8332V24.9999C14.5835 26.1499 15.5168 27.0832 16.6668 27.0832L20.8335 27.0812V43.7499C20.8335 44.8999 21.7668 45.8332 22.9168 45.8332H27.0835C28.2335 45.8332 29.1668 44.8999 29.1668 43.7499V27.077H35C36.2418 27.077 36.2418 27.0812 36.2418 25V21.0707C36.2418 18.7499 36.2418 18.7499 35 18.7499Z" fill="#FCFCFC"/>
</svg>
