<svg width="50" height="50" viewBox="0 0 50 50" fill="none" xmlns="http://www.w3.org/2000/svg">
<rect x="12" y="8" width="25" height="37" rx="3" fill="#FCFCFC"/>
<rect x="16" y="24" width="3" height="3" rx="1" fill="#1F1F25"/>
<rect x="23" y="24" width="3" height="3" rx="1" fill="#1F1F25"/>
<rect x="30" y="24" width="3" height="3" rx="1" fill="#1F1F25"/>
<rect x="16" y="31" width="3" height="3" rx="1" fill="#1F1F25"/>
<rect x="23" y="31" width="3" height="3" rx="1" fill="#1F1F25"/>
<rect x="30" y="31" width="3" height="3" rx="1" fill="#1F1F25"/>
<rect x="16" y="38" width="3" height="3" rx="1" fill="#1F1F25"/>
<rect x="23" y="38" width="3" height="3" rx="1" fill="#1F1F25"/>
<rect x="30" y="38" width="3" height="3" rx="1" fill="#1F1F25"/>
<rect x="16" y="11" width="17" height="10" rx="1" fill="#1F1F25"/>
<rect x="12" y="2" width="3" height="14" rx="1" fill="#FCFCFC"/>
</svg>
