<svg width="50" height="50" viewBox="0 0 50 50" fill="none" xmlns="http://www.w3.org/2000/svg">
<path d="M22.7082 4.37516C13.1249 5.41682 5.41656 13.1252 4.3749 22.5002C3.33323 32.2918 8.95823 41.0418 17.4999 44.3752C18.1249 44.5835 18.7499 44.1668 18.7499 43.3335V40.0002C18.7499 40.0002 17.9166 39.5 16.8749 39.5C13.9582 39.5 14.5832 38.5 13.5 37.0835C13.2917 36.2502 11.8749 34.7918 11.2499 34.1668C10.6249 33.9585 9.5 34.3752 9.5 34.1668C9.5 33.7502 11.0416 33.3335 11.2499 33.3335C12.4999 33.3335 13.5833 34.375 14 35C15.0417 36.6667 16.2499 37.5002 16.8749 37.5002C17.7082 37.5002 18.3332 37.2918 18.7499 37.0835C18.9582 35.6252 20.25 34.1668 21.5 33.3335C16.8749 31.5 13 29.0833 13 24.5C13 22.2083 13.5417 20.6667 15 19C14.7917 18.5833 14.5832 17.2918 14.5832 15.8335C14.5832 15.0002 14.5832 13.9585 14.9999 13.1252C14.9999 12.7085 15.4166 12.5002 15.6249 12.5002H15.8332C16.8749 12.7085 19.125 13.9585 21 15.8335C22 15 23.5417 15 25 15C26.4583 15 27.5 15 29 15.8335C30.875 13.9585 33.3332 12.7085 34.3749 12.5002H34.5832C34.9999 12.5002 35.2082 12.7085 35.4166 13.1252C35.4166 13.9585 35.4166 15.0002 35.4166 15.8335C35.4166 17.5002 35.2083 18.5833 35 19C36.4583 20.6667 36.5 22 36.5 24.5C36.5 29.0833 33 32 28.5 33.3335C29.75 34.3752 31.2499 36.2502 31.2499 38.1252V43.5418C31.2499 44.1668 31.8749 44.7918 32.7082 44.5835C40.4166 41.4585 45.8332 33.9585 45.8332 25.2085C45.8332 12.7085 35.2082 2.91682 22.7082 4.37516Z" fill="#FCFCFC"/>
</svg>
