<svg width="179" height="272" viewBox="0 0 179 272" fill="none" xmlns="http://www.w3.org/2000/svg">
<path fill-rule="evenodd" clip-rule="evenodd" d="M125.658 192.109L136 163C150.246 154.703 149.862 144.949 158.301 130.288C188.589 77.1799 150.278 10.106 88.4559 10.106C26.6359 10.106 -11.6711 77.1789 18.6169 130.288C27.0509 144.949 27.893 156.702 42 165L51.116 192.109C76.288 192.109 95.3749 192.109 125.658 192.109Z" fill="url(#paint0_linear)"/>
<path d="M88.4559 0.5C114.457 0.5 136.352 10.487 153.5 27.5C170.51 44.647 179 64.32 179 90.458C179 107.468 174.386 120.669 166.5 134.5C163.145 140.405 157.857 146.101 152.849 151.475C142.635 162.434 139.766 177.127 139.766 192.109V192.109C139.766 195.98 138.245 199.44 135.616 202.067C133.129 204.557 129.532 206.214 125.658 206.214H51.116C47.243 206.214 43.788 204.556 41.297 202.067C38.672 199.44 37.147 195.98 37.147 192.109V181.044C37.147 173.892 33.2478 167.442 28.3932 162.188C21.3939 154.614 16.9916 145.157 11.5 135.5C3.62 121.668 0.5 105.01 0.5 88C0.5 61.861 6.99 44.647 24 27.5C41.151 10.487 62.3179 0.5 88.4559 0.5ZM120.127 253.792C122.48 272.5 106.023 271.5 88.4559 271.5C70.8939 271.5 54.298 271 56.6479 253.792L88.4559 256.5L120.127 253.792ZM103.5 192.109C101.98 176.343 108.234 145 106.162 113.693C100.63 114.384 94.5459 103 88.4559 103C82.3719 103 76.17 117.69 70.5 117C73.125 142.169 74.52 176.342 73 192.109H103.5ZM68.683 192.109C70.341 176.343 71.5525 139.5 64.8099 117C55.9569 115.48 49.734 108.714 47.381 104.979C44.617 100.555 45.1709 93.255 53.3319 88C61.9039 82.606 66.33 95.809 68.683 109.5C74.214 110.329 81.9569 98 88.4559 98C94.9599 98 101.459 107.469 107.129 106.64C109.478 92.949 117.082 82.607 125.658 88C133.815 93.255 132.3 100.555 129.532 104.979C127.182 108.714 120.264 111.342 111.417 112.862C109.893 136.096 105.466 176.342 107.129 192.109H125.658L132.45 169.343C132.815 168.119 133.332 166.946 133.989 165.851V165.851C135.309 163.652 137.206 161.879 139.231 160.305C148.789 152.876 151.914 141.304 158.301 130.288C164.938 118.534 168.812 104.978 168.812 90.458C168.812 68.191 159.821 48.137 145.298 33.617C130.776 19.095 110.588 10.106 88.4559 10.106C66.1909 10.106 46.138 19.094 31.615 33.617C17.093 48.137 8.10596 68.191 8.10596 90.458C8.10596 104.978 11.9749 118.533 18.6169 130.288C22.9264 137.875 26.0017 145.727 30.6212 152.306C36.2077 160.263 43.662 167.076 48.1255 175.713V175.713C50.1078 179.549 51.4999 183.662 52.2549 187.913L53 192.109H68.683ZM120 92.5C116.408 90.287 113.212 98.204 112.107 105.949C117.916 104.841 122.204 103.321 123.586 101.246C126.809 96.407 123.874 94.989 120 92.5ZM53.3319 101.247C54.5749 103.322 57.692 106.892 63.5 108C62.39 100.255 58.597 91.786 55 94C51.131 96.488 52.7739 100.418 53.3319 101.247ZM54.298 233.047L88.4559 236.5L122.48 233.047C126.078 233.047 128.979 235.951 128.979 239.407C128.979 243.005 126.078 245.908 122.48 245.908L88.4559 248L54.298 245.908C50.839 245.908 47.933 243.004 47.933 239.407C47.933 235.951 50.839 233.047 54.298 233.047ZM47.933 212.716L88.4559 216L128.979 212.716C132.576 212.716 135.478 215.62 135.478 219.217C135.478 222.674 132.576 225.577 128.979 225.577L88.4559 227L47.933 225.577C44.34 225.577 41.434 222.673 41.434 219.217C41.434 215.62 44.34 212.716 47.933 212.716Z" fill="#1F1F25"/>
<defs>
<linearGradient id="paint0_linear" x1="88.4586" y1="10.106" x2="88.4586" y2="192.109" gradientUnits="userSpaceOnUse">
<stop stop-color="#515151"/>
<stop offset="0.34375" stop-color="#FCFCFC"/>
</linearGradient>
</defs>
</svg>
