<svg width="36" height="32" viewBox="0 0 36 32" fill="none" xmlns="http://www.w3.org/2000/svg">
<rect x="9" width="18" height="32" rx="9" fill="white"/>
<rect x="10" y="1" width="16" height="30" rx="8" stroke="#474747" stroke-opacity="0.1" stroke-width="2"/>
<path d="M25 8.5C25 10.5 25 10.5 18 10.5C11 10.5 11 11 11 8.5C11 4.91015 14.134 2 18 2C21.866 2 25 4.91015 25 8.5Z" fill="#DCDCDC"/>
<line x1="17.875" y1="10" x2="17.875" y2="2" stroke="white" stroke-width="0.25"/>
<path d="M33.5 9L34.5 11L35 12.5L35.5 14.5V16.5V18.5L35 20.5L34.5 22L33.5 24" stroke="#DFDFDF"/>
<path d="M33.5 9L34.5 11L35 12.5L35.5 14.5V16.5V18.5L35 20.5L34.5 22L33.5 24" stroke="#DFDFDF"/>
<path d="M32 12L32.5 13.2L32.75 14.1L33 15.3V16.5V17.7L32.75 18.9L32.5 19.8L32 21" stroke="#DFDFDF" stroke-width="0.666667"/>
<path d="M32 12L32.5 13.2L32.75 14.1L33 15.3V16.5V17.7L32.75 18.9L32.5 19.8L32 21" stroke="#DFDFDF" stroke-width="0.666667"/>
<path d="M30 14L30.5 14.6667L30.75 15.1667L31 15.8333V16.5V17.1667L30.75 17.8333L30.5 18.3333L30 19" stroke="#DFDFDF" stroke-width="0.466681"/>
<path d="M30 14L30.5 14.6667L30.75 15.1667L31 15.8333V16.5V17.1667L30.75 17.8333L30.5 18.3333L30 19" stroke="#DFDFDF" stroke-width="0.466681"/>
<path d="M3 23L2 21L1.5 19.5L1 17.5V15.5L1 13.5L1.5 11.5L2 10L3 8" stroke="#DFDFDF"/>
<path d="M3 23L2 21L1.5 19.5L1 17.5V15.5L1 13.5L1.5 11.5L2 10L3 8" stroke="#DFDFDF"/>
<path d="M4.5 20L4 18.8L3.75 17.9L3.5 16.7L3.5 15.5V14.3L3.75 13.1L4 12.2L4.5 11" stroke="#DFDFDF" stroke-width="0.666667"/>
<path d="M4.5 20L4 18.8L3.75 17.9L3.5 16.7L3.5 15.5V14.3L3.75 13.1L4 12.2L4.5 11" stroke="#DFDFDF" stroke-width="0.666667"/>
<path d="M6.5 18L6 17.3333L5.75 16.8333L5.5 16.1667V15.5V14.8333L5.75 14.1667L6 13.6667L6.5 13" stroke="#DFDFDF" stroke-width="0.466681"/>
<path d="M6.5 18L6 17.3333L5.75 16.8333L5.5 16.1667V15.5V14.8333L5.75 14.1667L6 13.6667L6.5 13" stroke="#DFDFDF" stroke-width="0.466681"/>
<ellipse cx="18" cy="10" rx="1" ry="3" fill="#414141"/>
</svg>
