<svg width="408" height="345" viewBox="0 0 408 345" fill="none" xmlns="http://www.w3.org/2000/svg">
<g filter="url(#filter0_d)">
<path d="M40.5 210.414L212.513 106.889L345.609 37.7865L236.427 239.117L141.885 232.635L40.5 210.414Z" fill="#FCFCFC"/>
</g>
<g filter="url(#filter1_d)">
<path d="M232.577 130.471C233.433 130.534 234.073 131.258 234.008 132.087L233.705 135.942C233.64 136.771 232.893 137.392 232.038 137.328C231.183 137.265 230.543 136.542 230.608 135.712L230.911 131.857C230.976 131.028 231.722 130.408 232.577 130.471Z" fill="#FF968A"/>
<path d="M242.43 131.199C243.285 131.263 243.925 131.986 243.86 132.815L243.557 136.67C243.492 137.499 242.746 138.12 241.891 138.056C241.036 137.993 240.395 137.27 240.46 136.441L240.763 132.586C240.828 131.756 241.575 131.136 242.43 131.199Z" fill="#FF968A"/>
<path d="M237.567 129.517C238.422 129.58 239.063 130.303 238.998 131.132L238.695 134.987C238.629 135.817 237.883 136.437 237.028 136.374C236.173 136.311 235.532 135.587 235.598 134.758L235.901 130.903C235.965 130.074 236.712 129.453 237.567 129.517Z" fill="#FF968A"/>
<path d="M269.929 154.705C270.731 154.999 271.136 155.868 270.834 156.646L267.966 164.02C266.458 167.897 261.983 169.859 257.99 168.395C257.187 168.101 256.782 167.232 257.084 166.454C257.387 165.676 258.283 165.284 259.085 165.579C261.476 166.455 264.156 165.278 265.06 162.955L267.928 155.581C268.231 154.803 269.126 154.411 269.929 154.705Z" fill="#91AAC4"/>
<path d="M213.571 118.439L214.277 116.222C214.36 115.958 214.644 115.784 214.956 115.808L221.18 116.268C221.608 116.3 221.917 116.652 221.846 117.026L221.219 120.56L217.272 142.803L208.796 145.406L216.445 121.129C216.467 121.059 216.474 120.988 216.465 120.917C216.447 120.745 216.343 120.585 216.174 120.484L213.842 119.087C213.604 118.943 213.494 118.683 213.571 118.439Z" fill="#91AAC4"/>
<path d="M213.53 118.964L214.27 116.311C214.357 115.995 214.644 115.784 214.956 115.807L221.18 116.268C221.608 116.3 221.912 116.715 221.836 117.162L221.154 121.386L216.389 121.878C216.374 121.673 216.272 121.484 216.105 121.366L213.791 119.733C213.555 119.566 213.449 119.256 213.53 118.964Z" fill="#3F5666"/>
<path d="M249.652 134.5L250.389 125.119C250.401 124.96 250.358 124.803 250.267 124.676C250.222 124.61 250.166 124.554 250.098 124.505L247.338 122.552C247.175 122.436 247.069 122.257 247.048 122.062L246.717 118.982C246.671 118.549 247.039 118.183 247.483 118.216L254.505 118.736C254.899 118.765 255.195 119.099 255.164 119.482L253.666 138.55L247.483 144.769L236.55 146.428L245.037 137.488L249.652 134.5Z" fill="#91AAC4"/>
<path d="M247.483 118.216L254.505 118.736C254.9 118.765 255.195 119.099 255.165 119.482L254.789 124.258L250.267 124.676C250.222 124.61 250.166 124.553 250.098 124.505L247.338 122.552C247.175 122.436 247.069 122.257 247.048 122.062L246.717 118.982C246.671 118.55 247.039 118.183 247.483 118.216Z" fill="#3F5666"/>
<path d="M237.195 134.262C231.438 133.835 226.453 137.544 226.06 142.544C225.667 147.545 230.015 151.944 235.772 152.371C241.529 152.797 246.514 149.089 246.907 144.088C247.3 139.088 242.952 134.688 237.195 134.262Z" fill="#E8C1B5"/>
<path d="M242.929 143.793C242.583 148.203 238.665 151.606 233.796 152.057C234.431 152.212 235.091 152.32 235.771 152.37C241.528 152.797 246.513 149.088 246.906 144.088C247.299 139.087 242.951 134.688 237.194 134.261C236.514 134.211 235.845 134.22 235.193 134.281C239.934 135.443 243.276 139.383 242.929 143.793Z" fill="#CCA295"/>
<path d="M168.826 169.944L169.154 165.765C169.351 163.255 174.295 161.502 174.295 161.502L176.516 161.187L186.131 159.824C186.131 159.824 186.148 159.819 186.178 159.811L186.18 159.811C186.647 159.683 192.864 146.955 196.559 145.316C203.379 142.29 202.759 121.863 202.759 121.863C202.755 121.779 202.734 121.695 202.7 121.619C202.657 121.525 202.596 121.443 202.517 121.374L198.965 118.354C198.749 118.171 198.668 117.885 198.756 117.622L199.567 115.202C199.672 114.895 199.979 114.697 200.317 114.722L207.083 115.223C207.453 115.25 207.759 115.518 207.818 115.871L208.463 120.647L207.276 139.489C207.334 139.832 207.625 140.097 207.986 140.132L208.715 140.212L231.829 142.709L244.059 144.031C244.271 144.053 244.484 143.996 244.648 143.867L250.037 139.915L256.037 135.546C257.037 135.348 257.037 135.348 257.037 135.348L260.052 135.348C260.495 135.381 260.883 135.065 260.916 134.641L261.655 125.245C261.664 125.121 261.64 124.996 261.59 124.884C261.543 124.78 261.473 124.682 261.382 124.607L259.626 123.136C259.487 123.019 259.392 122.859 259.361 122.687L258.88 120.017C258.792 119.523 259.211 119.083 259.734 119.122L266.337 119.611C266.78 119.644 267.112 120.013 267.079 120.435L265.535 140.086C265.511 140.384 265.312 140.641 265.02 140.746L262.536 143.038C262.244 143.145 262.042 143.402 262.019 143.698L261.105 156.268L260.388 166.126C260.169 169.128 258.888 171.823 256.911 173.887C254.313 176.603 250.518 178.236 246.372 178.058L233.037 177.121L211.278 175.588L206.494 175.252L184.858 176.582C183.468 176.479 182.18 175.85 181.276 174.837L180.229 173.665C179.324 172.654 178.034 172.027 176.646 171.924L170.174 171.444C169.369 171.385 168.765 170.712 168.826 169.944Z" fill="#E1E9F2"/>
<path d="M261.54 139.395C261.516 139.703 261.317 139.971 261.031 140.081L258.579 142.465C258.291 142.577 258.092 142.843 258.068 143.151L257.117 156.172L256.371 166.385C256.143 169.497 254.872 172.291 252.92 174.437C251.418 176.089 249.514 177.354 247.377 178.09C251.165 178.049 254.608 176.449 257.012 173.894C258.958 171.827 260.221 169.132 260.44 166.13L261.158 156.271L262.074 143.703C262.098 143.406 262.295 143.15 262.583 143.043L265.029 140.747C265.314 140.642 265.512 140.383 265.535 140.086L267.079 120.436C267.113 120.013 266.787 119.645 266.351 119.612L263.113 119.373L261.54 139.395Z" fill="#B3D2F2"/>
<path d="M259.859 119.133L266.352 119.613C266.789 119.646 267.114 120.015 267.08 120.44L266.758 124.536L261.676 124.89C261.632 124.786 261.562 124.69 261.472 124.614L259.747 123.146C259.611 123.029 259.518 122.869 259.488 122.698L259.019 120.028C258.934 119.535 259.345 119.095 259.859 119.133Z" fill="#3F5666"/>
<path d="M199.905 117.708L200.707 115.287C200.808 114.981 201.111 114.782 201.443 114.806L208.096 115.299C208.46 115.326 208.761 115.592 208.817 115.945L209.447 120.72L203.779 121.699C203.738 121.605 203.676 121.522 203.597 121.453L200.109 118.439C199.898 118.257 199.818 117.97 199.905 117.708Z" fill="#3F5666"/>
<path d="M212.031 173.112C212.494 167.218 217.791 162.804 223.86 163.254C229.931 163.703 234.477 168.846 234.014 174.74C233.948 175.579 233.784 176.388 233.533 177.157L212.141 175.652C212.004 174.83 211.963 173.98 212.031 173.112Z" fill="#2F3F4A"/>
<path d="M168.27 169.918L168.594 165.785C168.789 163.303 174.915 161.66 174.915 161.66L177.677 161.391C180.064 165.163 178.083 169.132 175.91 171.869L169.98 171.43C168.976 171.356 168.21 170.678 168.27 169.918Z" fill="#E5BEB3"/>
<path d="M249.82 164.399C250.212 159.422 254.684 155.695 259.807 156.074C260.269 156.108 260.721 156.175 261.159 156.271L260.441 166.13C260.222 169.133 258.959 171.827 257.012 173.894C252.597 172.912 249.465 168.917 249.82 164.399Z" fill="#2F3F4A"/>
<path d="M209.667 140.282L232.391 142.75C230.927 147.239 226.01 150.324 220.446 149.912C214.568 149.477 210.015 145.292 209.667 140.282Z" fill="#2F3F4A"/>
<path d="M184.218 169.499C183.362 169.436 182.616 170.057 182.551 170.886C182.486 171.715 183.127 172.438 183.982 172.502C184.837 172.565 185.583 171.944 185.648 171.115C185.713 170.286 185.073 169.563 184.218 169.499Z" fill="#2F3F4A"/>
<path d="M170.077 168.589C169.737 168.564 169.436 168.871 169.405 169.275C169.373 169.679 169.623 170.027 169.962 170.052C170.302 170.077 170.603 169.77 170.635 169.366C170.667 168.962 170.417 168.614 170.077 168.589Z" fill="#582838" fill-opacity="0.39"/>
<path d="M185.932 175.596C186.581 176.816 188.278 179.584 191.019 181.185C191.492 181.462 192.102 181.174 192.162 180.641C192.382 178.667 192.679 174.393 191.515 171.964C191.309 171.534 190.739 171.411 190.36 171.709C189.508 172.378 187.936 173.566 186.195 174.647C185.868 174.85 185.754 175.261 185.932 175.596Z" fill="#E1E9F2"/>
<path d="M187.419 175.909C187.767 176.565 188.679 178.052 190.152 178.913C190.406 179.061 190.734 178.907 190.766 178.62C190.884 177.559 191.044 175.263 190.418 173.957C190.308 173.727 190.002 173.66 189.798 173.821C189.34 174.18 188.495 174.818 187.56 175.399C187.384 175.508 187.323 175.729 187.419 175.909Z" fill="#91AAC4"/>
<path d="M270.747 148.553L267.86 154.946C267.681 155.341 267.867 155.803 268.275 155.976C271.255 157.245 274.73 155.927 276.037 153.033L278.924 146.64C279.103 146.244 278.917 145.783 278.51 145.61C275.53 144.341 272.054 145.659 270.747 148.553Z" fill="#2F3F4A"/>
</g>
<ellipse cx="337.97" cy="36.6043" rx="69.9705" ry="28.6043" fill="#3B8D99"/>
<g filter="url(#filter2_d)">
<ellipse cx="337.971" cy="30.0032" rx="33.8851" ry="14.0821" fill="#AA4B6B"/>
</g>
<path d="M355.133 24.7518C355.133 29.5964 347.252 33.5238 337.53 33.5238C327.809 33.5238 319.928 29.5964 319.928 24.7518C319.928 19.9072 327.809 13.2808 337.53 13.2808C347.252 13.2808 355.133 19.9072 355.133 24.7518Z" fill="#1F1F25"/>
<defs>
<filter id="filter0_d" x="0.5" y="1.78638" width="385.109" height="281.331" filterUnits="userSpaceOnUse" color-interpolation-filters="sRGB">
<feFlood flood-opacity="0" result="BackgroundImageFix"/>
<feColorMatrix in="SourceAlpha" type="matrix" values="0 0 0 0 0 0 0 0 0 0 0 0 0 0 0 0 0 0 127 0"/>
<feOffset dy="4"/>
<feGaussianBlur stdDeviation="20"/>
<feColorMatrix type="matrix" values="0 0 0 0 1 0 0 0 0 1 0 0 0 0 1 0 0 0 0.5 0"/>
<feBlend mode="normal" in2="BackgroundImageFix" result="effect1_dropShadow"/>
<feBlend mode="normal" in="SourceGraphic" in2="effect1_dropShadow" result="shape"/>
</filter>
<filter id="filter1_d" x="158" y="104" width="131.073" height="95.3633" filterUnits="userSpaceOnUse" color-interpolation-filters="sRGB">
<feFlood flood-opacity="0" result="BackgroundImageFix"/>
<feColorMatrix in="SourceAlpha" type="matrix" values="0 0 0 0 0 0 0 0 0 0 0 0 0 0 0 0 0 0 127 0"/>
<feOffset dy="4"/>
<feGaussianBlur stdDeviation="2"/>
<feColorMatrix type="matrix" values="0 0 0 0 1 0 0 0 0 1 0 0 0 0 1 0 0 0 0.7 0"/>
<feBlend mode="normal" in2="BackgroundImageFix" result="effect1_dropShadow"/>
<feBlend mode="normal" in="SourceGraphic" in2="effect1_dropShadow" result="shape"/>
</filter>
<filter id="filter2_d" x="300.565" y="15.9211" width="74.8112" height="35.2053" filterUnits="userSpaceOnUse" color-interpolation-filters="sRGB">
<feFlood flood-opacity="0" result="BackgroundImageFix"/>
<feColorMatrix in="SourceAlpha" type="matrix" values="0 0 0 0 0 0 0 0 0 0 0 0 0 0 0 0 0 0 127 0"/>
<feOffset dy="3.52053"/>
<feGaussianBlur stdDeviation="1.76026"/>
<feColorMatrix type="matrix" values="0 0 0 0 0.808398 0 0 0 0 0.174785 0 0 0 0 0.388212 0 0 0 1 0"/>
<feBlend mode="normal" in2="BackgroundImageFix" result="effect1_dropShadow"/>
<feBlend mode="normal" in="SourceGraphic" in2="effect1_dropShadow" result="shape"/>
</filter>
</defs>
</svg>
